<?xml version="1.0" encoding="UTF-8" standalone="no"?>
<!-- Created with Inkscape (http://www.inkscape.org/) -->

<svg
   xmlns:dc="http://purl.org/dc/elements/1.1/"
   xmlns:cc="http://creativecommons.org/ns#"
   xmlns:rdf="http://www.w3.org/1999/02/22-rdf-syntax-ns#"
   xmlns:svg="http://www.w3.org/2000/svg"
   xmlns="http://www.w3.org/2000/svg"
   xmlns:sodipodi="http://sodipodi.sourceforge.net/DTD/sodipodi-0.dtd"
   xmlns:inkscape="http://www.inkscape.org/namespaces/inkscape"
   width="210mm"
   height="297mm"
   viewBox="0 0 744.09448819 1052.3622047"
   id="svg2"
   version="1.1"
   inkscape:version="0.91 r13725"
   sodipodi:docname="ludumdare38.svg">
  <defs
     id="defs4" />
  <sodipodi:namedview
     id="base"
     pagecolor="#ffffff"
     bordercolor="#666666"
     borderopacity="1.0"
     inkscape:pageopacity="0.0"
     inkscape:pageshadow="2"
     inkscape:zoom="2.8284272"
     inkscape:cx="-228.41577"
     inkscape:cy="-450.95144"
     inkscape:document-units="px"
     inkscape:current-layer="layer1"
     showgrid="false"
     inkscape:window-width="1440"
     inkscape:window-height="847"
     inkscape:window-x="1912"
     inkscape:window-y="174"
     inkscape:window-maximized="1"
     showborder="false" />
  <metadata
     id="metadata7">
    <rdf:RDF>
      <cc:Work
         rdf:about="">
        <dc:format>image/svg+xml</dc:format>
        <dc:type
           rdf:resource="http://purl.org/dc/dcmitype/StillImage" />
        <dc:title />
      </cc:Work>
    </rdf:RDF>
  </metadata>
  <g
     inkscape:label="Layer 1"
     inkscape:groupmode="layer"
     id="layer1">
    <path
       sodipodi:nodetypes="ccccccccccccccccccc"
       inkscape:connector-curvature="0"
       id="path4350"
       d="m -108.51547,1454.7213 c -4.81535,-5.6456 -1.97779,1.5849 -7.32684,0.1387 -5.8799,-0.7134 -8.22349,7.5053 -13.45745,8.9069 -3.20925,2.7275 -12.24009,1.8774 -15.64538,3.9582 -1.21454,4.2898 -2.65927,8.9344 -7.51238,11.1099 -4.36314,4.1863 9.26996,8.1799 6.96654,13.0259 -3.29833,3.8049 2.29208,9.5868 6.74216,14.1819 2.96438,3.4751 11.22849,4.6071 9.66838,10.1918 -1.69808,9.98 5.16354,10.2565 10.87952,18.7585 3.90636,5.3986 -6.98602,10.168 -0.47797,11.4434 -5.63128,5.5476 -6.34846,17.6697 -0.67757,17.9927 5.94575,-0.382 13.9603,-10.3892 10.82296,-16.3067 -2.77644,-4.0431 0.89977,-7.9801 3.02977,-14.3867 2.29351,-5.3054 3.99598,-12.6678 5.550122,-18.4275 3.40765,-5.176 2.40969,-10.7791 8.06927,-14.3122 4.06,-4.4463 6.07371,-12.3453 5.33518,-17.4529 -0.16971,-4.7385 -2.81553,-13.6732 -6.9111,-16.895 -3.7438,-4.079 -4.60811,-7.5803 -4.63041,-13.1744 -1.58347,-3.3002 -6.937892,1.5664 -10.424802,1.2475 z"
       style="fill:#ff7f2a;fill-rule:evenodd;stroke:#ffff00;stroke-width:1px;stroke-linecap:butt;stroke-linejoin:miter;stroke-opacity:1"
       inkscape:export-filename="G:\Dev\LudumDare38\LudumDare38\Assets\Art\meteor2.png"
       inkscape:export-xdpi="90"
       inkscape:export-ydpi="90" />
    <text
       xml:space="preserve"
       style="font-style:normal;font-weight:normal;font-size:40px;line-height:125%;font-family:sans-serif;letter-spacing:0px;word-spacing:0px;fill:#0000ff;fill-opacity:1;stroke:none;stroke-width:0.5;stroke-linecap:butt;stroke-linejoin:miter;stroke-opacity:1;stroke-miterlimit:4;stroke-dasharray:none;"
       x="-55.861435"
       y="1004.9861"
       id="text4189"
       sodipodi:linespacing="125%"><tspan
         sodipodi:role="line"
         id="tspan4191"
         x="-55.861435"
         y="1004.9861">A SMALL</tspan><tspan
         sodipodi:role="line"
         x="-55.861435"
         y="1054.9861"
         id="tspan4193">WORLD</tspan></text>
    <text
       xml:space="preserve"
       style="font-style:normal;font-weight:normal;font-size:40px;line-height:125%;font-family:sans-serif;letter-spacing:0px;word-spacing:0px;fill:#000000;fill-opacity:1;stroke:none;stroke-width:1px;stroke-linecap:butt;stroke-linejoin:miter;stroke-opacity:1"
       x="-141.7749"
       y="1107.163"
       id="text4195"
       sodipodi:linespacing="125%"><tspan
         sodipodi:role="line"
         id="tspan4197"
         x="-141.7749"
         y="1107.163">you're the small world</tspan><tspan
         sodipodi:role="line"
         x="-141.7749"
         y="1157.163"
         id="tspan4199">travel, collect water and land</tspan><tspan
         sodipodi:role="line"
         x="-141.7749"
         y="1207.163"
         id="tspan4203">need to avoid bigger worlds</tspan></text>
    <path
       style="fill:#55ddff;fill-opacity:1;stroke:#000000;stroke-width:1.30467534;stroke-miterlimit:4;stroke-dasharray:none;stroke-opacity:1"
       d="m -97.940148,1403.0872 a 37.824338,37.824338 0 0 1 -37.824342,37.8244 37.824338,37.824338 0 0 1 -37.82433,-37.8244 37.824338,37.824338 0 0 1 37.82433,-37.8244 37.824338,37.824338 0 0 1 37.824342,37.8244 z"
       id="path4207"
       inkscape:connector-curvature="0"
       inkscape:export-filename="G:\Dev\LudumDare38\LudumDare38\Assets\world.png"
       inkscape:export-xdpi="90"
       inkscape:export-ydpi="90" />
    <g
       id="g4433"
       inkscape:export-filename="G:\Dev\LudumDare38\LudumDare38\Assets\world.png"
       inkscape:export-xdpi="90"
       inkscape:export-ydpi="90"
       transform="matrix(0.65233769,0,0,0.65233769,-60.577085,501.17744)">
      <g
         id="g4428">
        <path
           style="fill:#71c837;fill-rule:evenodd;stroke:#000000;stroke-width:1px;stroke-linecap:butt;stroke-linejoin:miter;stroke-opacity:1"
           d="m -163.27843,1350.1072 a 57.982758,57.982758 0 0 0 -9.96289,32.4746 57.982758,57.982758 0 0 0 13.24414,36.8164 c 2.64261,-1.416 5.4624,-2.3887 8.60547,-2.4043 5.64314,1.5102 10.72835,4.5243 16.25586,6.334 3.5333,1.3074 8.03749,3.8311 11.39257,0.8047 0.43649,-5.4271 -3.23525,-9.8771 -6.00586,-14.1601 -4.82997,-3.776 -6.0619,-11.1608 -3.12304,-16.459 2.42248,-2.851 5.76076,-5.3232 6.69726,-9.1739 0.95513,-3.9003 -0.625,-8.143 -4.27734,-10.0722 -4.3257,-1.9263 -4.94421,-7.1938 -1.97461,-10.6035 2.5159,-2.8109 5.48156,-8.886 -0.44141,-9.7579 -2.871,-0.5825 -5.13311,1.6036 -7.85351,2.0665 -4.40647,1.5178 -9.68869,3.8377 -14.06836,1.041 -2.9217,-2.0597 -5.12845,-5.6253 -8.48828,-6.9063 z"
           id="path4209"
           inkscape:connector-curvature="0" />
        <path
           style="fill:#71c837;fill-rule:evenodd;stroke:#000000;stroke-width:1px;stroke-linecap:butt;stroke-linejoin:miter;stroke-opacity:1"
           d="m -115.2589,1324.5975 a 57.982758,57.982758 0 0 0 -9.73438,0.8281 c 0.0499,0.052 0.092,0.107 0.14258,0.1582 3.20359,2.8363 7.66682,4.3577 11.92774,3.6308 4.44066,1.609 5.57596,8.2102 2.20507,11.3965 -2.5137,4.196 3.71352,9.7463 7.53711,6.5918 6.97253,-4.3639 14.144041,-8.5019 21.750003,-11.6504 a 57.982758,57.982758 0 0 0 -33.828123,-10.955 z"
           id="path4211"
           inkscape:connector-curvature="0" />
        <path
           style="fill:#71c837;fill-rule:evenodd;stroke:#000000;stroke-width:1px;stroke-linecap:butt;stroke-linejoin:miter;stroke-opacity:1"
           d="m -57.413199,1378.6951 c -5.545911,-0.061 -10.583543,4.3391 -12.154297,9.5567 -5.085249,1.7802 -7.909407,-4.3855 -12.464844,-5.1075 -3.908345,-0.7905 -7.002296,-3.9094 -11.001953,-4.1718 -5.589268,-0.1264 -6.232282,6.6089 -6.546875,10.7871 -0.369933,4.6239 -2.520772,9.3563 -0.656252,13.9492 1.342468,4.3789 6.290503,5.7528 10.375002,5.2129 4.106305,-0.8313 8.819427,1.8861 8.253906,6.5254 -0.504318,7.8458 -9.77262,11.3358 -10.621093,19.0996 -0.02211,0.3982 -0.02288,0.7893 -0.0039,1.1758 a 57.982758,57.982758 0 0 0 34.957032,-53.1407 57.982758,57.982758 0 0 0 -0.136719,-3.8867 z"
           id="path4213"
           inkscape:connector-curvature="0" />
      </g>
    </g>
    <path
       style="fill:#0066ff;fill-rule:evenodd;stroke:#000000;stroke-width:1.40095401;stroke-linecap:butt;stroke-linejoin:miter;stroke-miterlimit:4;stroke-dasharray:none;stroke-opacity:1"
       d="m 49.46056,1371.2137 c -2.104201,20.096 -7.250305,32.2017 -7.250305,32.2017 0,0 -2.652614,17.7498 5.646132,18.2275 8.298746,0.4777 7.584602,-17.5279 7.584602,-17.5279 z"
       id="path4439"
       inkscape:connector-curvature="0"
       sodipodi:nodetypes="ccccc"
       inkscape:export-filename="G:\Dev\LudumDare38\LudumDare38\Assets\Art\water.png"
       inkscape:export-xdpi="90"
       inkscape:export-ydpi="90" />
    <path
       style="fill:#502d16;fill-opacity:1;stroke:#000000;stroke-width:0.86034817;stroke-miterlimit:4;stroke-dasharray:none;stroke-opacity:1"
       d="m 114.29432,1378.8916 c -7.62917,-3.0268 -16.025284,0.8349 -18.616363,8.9822 -4.22692,5.5016 -4.127556,13.973 0.385719,19.6441 4.466324,5.197 11.364554,4.6787 16.973764,7.4302 6.93994,-0.067 12.84449,-7.4722 13.67552,-14.6871 2.43812,-8.6173 -9.56318,-5.9192 -9.3934,-12.6145 1.1843,-3.063 1.50623,-8.8665 -3.02524,-8.7549 z"
       id="path4506"
       inkscape:connector-curvature="0"
       inkscape:export-filename="G:\Dev\LudumDare38\LudumDare38\Assets\Art\ground.png"
       inkscape:export-xdpi="90"
       inkscape:export-ydpi="90" />
    <g
       id="g4548"
       inkscape:export-filename="G:\Dev\LudumDare38\LudumDare38\Assets\Art\ground.png"
       inkscape:export-xdpi="90"
       inkscape:export-ydpi="90"
       transform="matrix(0.57908593,0,0,0.57908593,38.789041,595.75302)">
      <path
         inkscape:connector-curvature="0"
         id="path4538"
         d="m 115.55273,1368.7822 c -7.62861,8.19 -3.01034,27.9047 4.31535,30.453"
         style="fill:none;fill-rule:evenodd;stroke:#000000;stroke-width:0.74285018px;stroke-linecap:butt;stroke-linejoin:miter;stroke-opacity:1" />
      <path
         inkscape:connector-curvature="0"
         id="path4540"
         d="m 138.0604,1396.4806 c 6.37716,-11.0166 -5.03908,-15.4107 -6.55089,-23.8508"
         style="fill:none;fill-rule:evenodd;stroke:#000000;stroke-width:0.74285018px;stroke-linecap:butt;stroke-linejoin:miter;stroke-opacity:1" />
      <path
         inkscape:connector-curvature="0"
         id="path4542"
         d="m 126.72371,1362.4498 c -7.48532,-6.8304 5.54156,2.4953 -4.50888,-1.0008 -0.60878,-0.2117 -1.91464,-3.3605 -2.3779,-3.0978 -2.25606,1.2789 -3.97658,4.6457 -6.60983,5.0806"
         style="fill:none;fill-rule:evenodd;stroke:#000000;stroke-width:0.74285018px;stroke-linecap:butt;stroke-linejoin:miter;stroke-opacity:1" />
      <path
         inkscape:connector-curvature="0"
         id="path4544"
         d="m 102.19851,1379.4643 c -4.941822,5.1491 -0.27841,8.0891 1.68276,11.9391 0.88123,1.7298 -1.81731,5.0679 -0.77742,7.1094 0.68313,1.341 2.58961,1.3383 3.6191,2.3944"
         style="fill:none;fill-rule:evenodd;stroke:#000000;stroke-width:0.74285018px;stroke-linecap:butt;stroke-linejoin:miter;stroke-opacity:1" />
      <path
         inkscape:connector-curvature="0"
         id="path4546"
         d="m 119.86031,1389.0142 c -0.40147,-1.6225 -1.37872,-4.9833 0.15678,-6.7576 5.21925,-6.0312 6.46994,7.2055 6.91684,8.0828 0.82004,1.61 3.50194,2.1644 4.322,3.7742 0.93497,1.8355 0.0863,4.701 1.57044,6.2231"
         style="fill:none;fill-rule:evenodd;stroke:#000000;stroke-width:0.74285018px;stroke-linecap:butt;stroke-linejoin:miter;stroke-opacity:1" />
    </g>
    <path
       inkscape:export-ydpi="90"
       inkscape:export-xdpi="90"
       inkscape:export-filename="G:\Dev\LudumDare38\LudumDare38\Assets\Art\bullyworld.png"
       inkscape:connector-curvature="0"
       id="path4555"
       d="m 134.93749,1603.1984 a 64.933928,64.933928 0 0 1 -64.933938,64.934 64.933928,64.933928 0 0 1 -64.9339197,-64.934 64.933928,64.933928 0 0 1 64.9339197,-64.9339 64.933928,64.933928 0 0 1 64.933938,64.9339 z"
       style="fill:#2c89a0;fill-opacity:1;stroke:#000000;stroke-width:2.23976684;stroke-miterlimit:4;stroke-dasharray:none;stroke-opacity:1" />
    <path
       style="fill:#806600;fill-rule:evenodd;stroke:#000000;stroke-width:1.11988342px;stroke-linecap:butt;stroke-linejoin:miter;stroke-opacity:1"
       d="m 54.615789,1551.5821 c -12.790034,2.1913 -21.564811,25.5574 -35.811152,12.6945 -0.158517,-0.096 -0.320273,-0.1705 -0.479835,-0.2595 a 64.933928,64.933928 0 0 0 -11.4904114,24.4384 64.933928,64.933928 0 0 0 1.6432118,8.4002 c 4.3517866,6.5239 9.5672226,12.2439 17.4280036,13.7462 11.591756,-0.2689 25.488618,-8.2774 28.470265,-20.1214 -5.272949,-11.9145 3.755656,-23.1876 1.911799,-35.3163 l -0.680522,-1.8001 -0.991359,-1.782 z"
       id="path4561"
       inkscape:connector-curvature="0"
       inkscape:export-filename="G:\Dev\LudumDare38\LudumDare38\Assets\Art\bullyworld.png"
       inkscape:export-xdpi="90"
       inkscape:export-ydpi="90" />
    <path
       style="fill:#806600;fill-rule:evenodd;stroke:#000000;stroke-width:1.11988342px;stroke-linecap:butt;stroke-linejoin:miter;stroke-opacity:1"
       d="m 132.84512,1587.0433 c -2.61481,0 -5.17869,0.3003 -7.54611,1.6907 -4.63422,2.1983 -5.35568,7.9046 -4.09456,12.3428 1.58754,4.4152 -0.65791,10.0796 -5.89033,10.2058 -8.77547,0.7145 -14.14715,-8.9902 -22.887613,-8.6703 -0.44482,0.04 -0.87843,0.1024 -1.303612,0.1859 a 64.933928,64.933928 0 0 0 37.461415,28.2245 64.933928,64.933928 0 0 0 6.35403,-27.8243 64.933928,64.933928 0 0 0 -2.09322,-16.1551 z"
       id="path4565"
       inkscape:connector-curvature="0"
       inkscape:export-filename="G:\Dev\LudumDare38\LudumDare38\Assets\Art\bullyworld.png"
       inkscape:export-xdpi="90"
       inkscape:export-ydpi="90" />
    <path
       style="color:#000000;clip-rule:nonzero;display:inline;overflow:visible;visibility:visible;opacity:1;isolation:auto;mix-blend-mode:normal;color-interpolation:sRGB;color-interpolation-filters:linearRGB;solid-color:#000000;solid-opacity:1;fill:#806600;fill-opacity:1;fill-rule:evenodd;stroke:#000000;stroke-width:1.11988342px;stroke-linecap:butt;stroke-linejoin:miter;stroke-miterlimit:4;stroke-dasharray:none;stroke-dashoffset:0;stroke-opacity:1;color-rendering:auto;image-rendering:auto;shape-rendering:auto;text-rendering:auto;enable-background:accumulate"
       d="m 97.636554,1544.5234 c 0.205811,1.2496 0.676227,2.5197 1.456101,3.6938 2.916085,6.147 -1.027613,23.1654 -9.220993,13.5546 -4.180857,-6.9692 -13.17652,-13.7877 -21.121838,-8.035 -6.201583,8.7316 9.069706,13.7479 14.638016,18.0497 -0.69541,7.4939 8.71701,7.9911 13.61949,5.6116 7.95985,-3.2786 24.88573,-0.2872 24.2619,-12.5858 -0.14865,-0.7042 -0.32244,-1.403 -0.50851,-2.099 a 64.933928,64.933928 0 0 0 -23.124166,-18.1899 z"
       id="path4629"
       inkscape:connector-curvature="0"
       inkscape:export-filename="G:\Dev\LudumDare38\LudumDare38\Assets\Art\bullyworld.png"
       inkscape:export-xdpi="90"
       inkscape:export-ydpi="90" />
    <path
       style="color:#000000;clip-rule:nonzero;display:inline;overflow:visible;visibility:visible;opacity:1;isolation:auto;mix-blend-mode:normal;color-interpolation:sRGB;color-interpolation-filters:linearRGB;solid-color:#000000;solid-opacity:1;fill:#806600;fill-opacity:1;fill-rule:evenodd;stroke:#000000;stroke-width:1.11988342px;stroke-linecap:butt;stroke-linejoin:miter;stroke-miterlimit:4;stroke-dasharray:none;stroke-dashoffset:0;stroke-opacity:1;color-rendering:auto;image-rendering:auto;shape-rendering:auto;text-rendering:auto;enable-background:accumulate"
       d="m 79.422398,1620.8218 c -3.545562,-0.1006 -8.61824,1.2237 -10.784233,1.2237 -3.769788,0 -9.418942,-0.878 -12.564761,1.6387 -6.381172,5.1049 -9.499997,11.3562 -14.749674,17.4808 -3.698511,4.315 -6.40342,9.5602 -9.537871,14.4464 a 64.933928,64.933928 0 0 0 38.217876,12.521 64.933928,64.933928 0 0 0 40.132685,-13.9047 c -7.24907,-12.1858 -15.943603,-24.7968 -27.841035,-32.7284 -0.67798,-0.452 -1.691131,-0.6439 -2.872987,-0.6775 z"
       id="path4654"
       inkscape:connector-curvature="0"
       inkscape:export-filename="G:\Dev\LudumDare38\LudumDare38\Assets\Art\bullyworld.png"
       inkscape:export-xdpi="90"
       inkscape:export-ydpi="90" />
    <path
       style="color:#000000;clip-rule:nonzero;display:inline;overflow:visible;visibility:visible;opacity:0.29800002;isolation:auto;mix-blend-mode:normal;color-interpolation:sRGB;color-interpolation-filters:linearRGB;solid-color:#000000;solid-opacity:1;fill:#ffeeaa;fill-opacity:1;fill-rule:evenodd;stroke:#000000;stroke-width:1.25570047px;stroke-linecap:butt;stroke-linejoin:miter;stroke-miterlimit:4;stroke-dasharray:none;stroke-dashoffset:0;stroke-opacity:1;color-rendering:auto;image-rendering:auto;shape-rendering:auto;text-rendering:auto;enable-background:accumulate"
       d="m 459.18682,1384.4104 c -13.45309,12.6565 -6.24416,29.005 10.62346,31.5475 10.39194,7.588 30.13716,15.429 24.32002,31.5563 -9.90094,17.8569 15.91715,23.3086 18.724,38.0632 -2.23305,13.0957 -20.5427,25.1339 -6.23415,38.0074 -1.81234,20.3856 -31.83792,16.8704 -38.62362,33.2551 2.0479,14.7821 -12.81397,38.9697 -25.27442,17.836 -16.15139,-7.7031 -13.17451,29.802 -32.94379,20.652 -13.29983,-13.3563 -10.89253,21.8822 -25.55072,5.2692 -7.23005,-8.8624 -14.17952,-13.6885 -22.30018,-2.9813 -12.14645,-1.3724 -24.26231,-19.7851 -21.29443,-32.737 -15.99303,1.3057 -28.38881,-15.4583 -31.16896,-29.3628 -3.24807,-12.1858 -27.38985,-21.6397 -15.00042,-35.0023 15.70331,-11.8245 -12.8033,-24.2735 -3.8443,-38.8773 3.27194,-8.3191 18.94397,0.874 8.82601,-10.4838 -6.63478,-11.4183 -21.93355,-30.58 -7.71679,-41.6582 7.81414,-7.1198 26.99511,-4.9137 29.55723,-4.4032 -4.94689,-15.4669 25.93707,-27.6417 29.92029,-9.926 13.05109,4.9158 26.35971,-25.8793 41.71441,-16.8213 7.51984,22.0998 22.97702,-18.8308 36.16524,-0.5558 7.53239,6.2691 35.40831,-14.8195 31.15958,4.6512 l -1.05825,1.971 0,0 z"
       id="path4669"
       inkscape:connector-curvature="0"
       inkscape:export-filename="G:\Dev\LudumDare38\LudumDare38\Assets\Art\sun2.png"
       inkscape:export-xdpi="90"
       inkscape:export-ydpi="90" />
    <path
       inkscape:connector-curvature="0"
       id="path4703"
       d="m 504.13959,1429.4677 c -18.02369,4.0396 -20.14685,21.7804 -6.92606,32.5596 5.07808,11.823 18.0765,28.6277 4.85621,39.5435 -17.61554,10.3241 1.82589,28.1657 -3.27367,42.2927 -8.59181,10.1324 -30.47996,11.1662 -24.72346,29.5327 -11.94273,16.6201 -35.99136,-1.6982 -50.17625,8.9459 -5.76671,13.764 -30.87595,27.0093 -30.83486,2.4758 -9.9759,-14.8555 -26.51681,18.9365 -38.86918,0.993 -4.64257,-18.268 -20.51915,13.2832 -24.6719,-8.4794 -1.70802,-11.3091 -5.23038,-19.0021 -17.67233,-13.9239 -9.75385,-7.3677 -10.80211,-29.384 -1.65117,-39.0184 -14.42811,-7.0222 -16.55703,-27.7624 -11.86746,-41.1441 3.41149,-12.1411 -12.54893,-32.5731 4.91904,-37.7622 19.53644,-2.1775 1.3453,-27.4102 16.49336,-35.4146 7.05291,-5.4926 15.85737,10.401 12.93513,-4.5266 0.1061,-13.2056 -3.29978,-37.4877 14.57722,-39.7801 10.35098,-2.1471 25.73384,9.521 27.67873,11.2653 3.62067,-15.8299 36.39947,-10.5768 30.80407,6.6975 8.72754,10.8778 35.8656,-8.845 44.4658,6.7707 -4.78491,22.8485 29.36445,-4.502 31.40571,17.942 3.28905,9.2315 38.01937,5.2816 24.44589,19.8735 l -1.91458,1.1571 0,0 z"
       style="color:#000000;clip-rule:nonzero;display:inline;overflow:visible;visibility:visible;opacity:0.29800002;isolation:auto;mix-blend-mode:normal;color-interpolation:sRGB;color-interpolation-filters:linearRGB;solid-color:#000000;solid-opacity:1;fill:#ffeeaa;fill-opacity:1;fill-rule:evenodd;stroke:#000000;stroke-width:1.25570047px;stroke-linecap:butt;stroke-linejoin:miter;stroke-miterlimit:4;stroke-dasharray:none;stroke-dashoffset:0;stroke-opacity:1;color-rendering:auto;image-rendering:auto;shape-rendering:auto;text-rendering:auto;enable-background:accumulate"
       inkscape:export-filename="G:\Dev\LudumDare38\LudumDare38\Assets\Art\sun2.png"
       inkscape:export-xdpi="90"
       inkscape:export-ydpi="90" />
    <path
       style="color:#000000;clip-rule:nonzero;display:inline;overflow:visible;visibility:visible;opacity:0.29800002;isolation:auto;mix-blend-mode:normal;color-interpolation:sRGB;color-interpolation-filters:linearRGB;solid-color:#000000;solid-opacity:1;fill:#ffeeaa;fill-opacity:1;fill-rule:evenodd;stroke:#000000;stroke-width:1.25570047px;stroke-linecap:butt;stroke-linejoin:miter;stroke-miterlimit:4;stroke-dasharray:none;stroke-dashoffset:0;stroke-opacity:1;color-rendering:auto;image-rendering:auto;shape-rendering:auto;text-rendering:auto;enable-background:accumulate"
       d="m 512.82516,1512.1813 c -16.02273,-9.1893 -29.56706,2.4638 -27.0925,19.3414 -4.23677,12.1501 -5.9945,33.3223 -23.11663,32.4485 -19.96482,-4.2781 -17.66995,22.0094 -30.96989,28.9872 -13.17894,1.6732 -30.0229,-12.3425 -38.1772,5.0922 -20.03111,4.1965 -25.40267,-25.5532 -43.05287,-27.2788 -13.54697,6.2595 -41.01192,-0.9231 -24.41718,-18.9926 2.67134,-17.6938 -32.34575,-3.935 -29.34255,-25.5111 8.90952,-16.6101 -24.10458,-4.0556 -12.47424,-22.9129 6.37569,-9.4953 8.97147,-17.5482 -3.63507,-22.2029 -2.2205,-12.0203 11.87114,-28.9686 25.12628,-29.8969 -5.90173,-14.9215 6.53112,-31.658 19.02545,-38.363 10.7139,-6.6525 12.7358,-32.5005 29.12469,-24.5342 15.88138,11.5842 19.49907,-19.311 36.07755,-14.9879 8.91108,0.7103 4.67473,18.3789 12.59791,5.3945 8.99435,-9.6697 22.87668,-29.8811 37.61155,-19.5019 9.08515,5.4049 12.5544,24.3981 12.81135,26.9979 13.35876,-9.2324 33.99149,16.774 18.20082,25.7386 -0.90648,13.9167 32.42845,17.6911 28.22903,35.0167 -18.95635,13.6237 24.70058,16.5053 11.05266,34.4395 -3.80672,9.0303 24.47922,29.5657 4.61457,31.165 l -2.19356,-0.4392 0,0 z"
       id="path4705"
       inkscape:connector-curvature="0"
       inkscape:export-filename="G:\Dev\LudumDare38\LudumDare38\Assets\Art\sun2.png"
       inkscape:export-xdpi="90"
       inkscape:export-ydpi="90" />
    <path
       inkscape:connector-curvature="0"
       id="path4715"
       d="m 240.98462,1717.0627 c 11.18817,14.8116 28.3027,9.3795 32.66947,-7.1975 8.70661,-9.5609 18.67877,-28.4392 34.16162,-20.8808 16.7685,11.8258 25.01125,-13.3786 40.05651,-14.5851 12.84207,3.6492 22.88656,23.246 37.29804,10.3444 20.1709,4.0184 13.40729,33.6363 29.04243,42.1902 14.99055,-0.4453 37.54686,17.0225 15.08284,27.183 -9.44524,15.3027 28.34846,16.3901 17.06579,35.1506 -14.7845,11.8414 20.6829,13.2524 2.49745,26.0983 -9.63732,6.2638 -15.21171,12.6844 -5.39355,21.9572 -2.68649,11.987 -22.39467,22.098 -35.0135,17.7301 -0.42744,16.12 -18.51868,26.6891 -32.71171,27.961 -12.52658,1.9256 -24.58636,25.0218 -36.59515,11.1965 -10.11334,-16.9697 -25.63819,10.1631 -39.25862,-0.3694 -7.95719,-4.1698 2.92481,-18.8322 -9.51847,-9.9533 -12.12654,5.3923 -32.92775,18.6021 -42.45635,3.1984 -6.26719,-8.578 -1.98587,-27.5028 -1.19842,-30.0073 -15.98861,3.2675 -24.80787,-28.9071 -6.67683,-30.9682 6.32473,-12.507 -23.00145,-29.1385 -12.28881,-43.4985 22.89425,-5.1197 -16.3255,-24.9956 3.36117,-36.1928 7.07914,-6.8466 -10.97168,-36.9812 8.02142,-30.6278 l 1.85457,1.2707 0,0 z"
       style="opacity:0.29800002;fill:#ffeeaa;fill-rule:evenodd;stroke:#000000;stroke-width:1.26191628px;stroke-linecap:butt;stroke-linejoin:miter;stroke-opacity:1"
       inkscape:export-filename="G:\Dev\LudumDare38\LudumDare38\Assets\Art\circle4739.png"
       inkscape:export-xdpi="90"
       inkscape:export-ydpi="90" />
    <path
       style="opacity:0.29800002;fill:#ffeeaa;fill-rule:evenodd;stroke:#000000;stroke-width:1.26191628px;stroke-linecap:butt;stroke-linejoin:miter;stroke-opacity:1"
       d="m 457.00776,1775.9494 c -18.1535,-3.874 -27.53638,11.4353 -19.98669,26.8259 -0.32391,12.9271 4.49442,33.7265 -12.15811,38.1471 -20.41782,2.036 -10.15112,26.486 -20.73557,37.2463 -12.09724,5.6474 -32.51838,-2.5929 -34.96844,16.594 -17.87944,10.1655 -32.15323,-16.6529 -49.57255,-12.8852 -11.04133,10.149 -39.52784,11.7082 -29.19599,-10.6774 -2.87612,-17.7515 -32.15985,6.1653 -35.91038,-15.403 3.42594,-18.6297 -24.31089,3.5198 -18.97132,-18.0955 3.18564,-11.0436 3.19715,-19.5466 -10.29513,-20.1301 -5.8153,-10.8205 2.46559,-31.3648 14.86447,-36.3227 -10.22859,-12.4665 -3.46998,-32.2989 6.42735,-42.5507 8.20968,-9.6553 2.20863,-35.01 20.33701,-32.4189 18.75354,6.2091 12.72987,-24.4653 29.92114,-25.4184 8.74512,-2.0562 10.11595,16.1517 13.71118,1.2941 5.63799,-12.0142 12.71673,-35.6167 30.00317,-30.2089 10.35301,2.3828 19.50403,19.4922 20.54811,21.9011 9.94851,-12.9359 37.67651,5.6151 25.31867,19.0414 3.40528,13.5953 36.46237,6.9725 37.76328,24.8407 -13.95668,18.8566 28.70347,8.2104 21.14987,29.5618 -0.87016,9.81 32.50152,20.7761 13.98399,28.4052 l -2.23385,0.2533 0,0 z"
       id="path4717"
       inkscape:connector-curvature="0"
       inkscape:export-filename="G:\Dev\LudumDare38\LudumDare38\Assets\Art\circle4739.png"
       inkscape:export-xdpi="90"
       inkscape:export-ydpi="90" />
    <path
       inkscape:connector-curvature="0"
       id="path4719"
       d="m 437.7509,1709.9842 c -17.21717,6.9374 -16.43742,24.8763 -1.57332,33.4158 6.95884,10.8992 22.5824,25.4503 11.24713,38.4257 -15.79042,13.1033 6.39145,27.6351 3.63175,42.4742 -6.87265,11.4456 -28.41106,16.0307 -19.71535,33.3086 -9.14066,18.4245 -35.96895,4.1692 -48.30503,17.0319 -3.48037,14.5878 -26.22712,31.8069 -30.17633,7.4702 -12.30918,-13.1099 -23.21714,23.0919 -38.3852,7.3062 -7.57511,-17.3614 -18.18863,16.5101 -25.84629,-4.3966 -3.53304,-10.9374 -8.2773,-17.9937 -19.79018,-10.9341 -10.87111,-5.7203 -15.49134,-27.3835 -7.98319,-38.4261 -15.45042,-4.6175 -20.93472,-24.8393 -18.46047,-38.8729 1.40866,-12.5952 -17.74233,-30.262 -1.26315,-38.2488 19.02014,-5.3367 -3.12375,-27.4016 10.59688,-37.8032 6.10112,-6.594 17.41736,7.7359 12.09166,-6.5926 -2.04255,-13.1134 -9.36923,-36.64 7.98662,-41.8208 9.91591,-3.8128 27.0688,5.2567 29.28121,6.6702 1.01615,-16.2873 34.37731,-16.4088 31.63769,1.6322 10.42422,9.3681 34.12957,-14.6046 45.19801,-0.5172 -1.02921,23.4372 28.38871,-9.2402 34.06318,12.6856 4.76312,8.62 38.56285,-0.9456 27.47509,15.7328 l -1.71051,1.4589 0,0 z"
       style="opacity:0.29800002;fill:#ffeeaa;fill-rule:evenodd;stroke:#000000;stroke-width:1.26191628px;stroke-linecap:butt;stroke-linejoin:miter;stroke-opacity:1"
       inkscape:export-filename="G:\Dev\LudumDare38\LudumDare38\Assets\Art\circle4739.png"
       inkscape:export-xdpi="90"
       inkscape:export-ydpi="90" />
    <circle
       style="color:#000000;clip-rule:nonzero;display:inline;overflow:visible;visibility:visible;opacity:1;isolation:auto;mix-blend-mode:normal;color-interpolation:sRGB;color-interpolation-filters:linearRGB;solid-color:#000000;solid-opacity:1;fill:#ffdd55;fill-opacity:1;fill-rule:evenodd;stroke:#a0892c;stroke-width:1.82021749px;stroke-linecap:butt;stroke-linejoin:miter;stroke-miterlimit:4;stroke-dasharray:none;stroke-dashoffset:0;stroke-opacity:1;color-rendering:auto;image-rendering:auto;shape-rendering:auto;text-rendering:auto;enable-background:accumulate"
       id="path4667"
       cx="399.07932"
       cy="1485.3363"
       r="79.912292"
       inkscape:export-filename="G:\Dev\LudumDare38\LudumDare38\Assets\Art\sun2.png"
       inkscape:export-xdpi="90"
       inkscape:export-ydpi="90" />
    <circle
       r="80.307861"
       cy="1780.8639"
       cx="341.43256"
       id="circle4739"
       style="color:#000000;clip-rule:nonzero;display:inline;overflow:visible;visibility:visible;opacity:1;isolation:auto;mix-blend-mode:normal;color-interpolation:sRGB;color-interpolation-filters:linearRGB;solid-color:#000000;solid-opacity:1;fill:#ffdd55;fill-opacity:1;fill-rule:evenodd;stroke:#a0892c;stroke-width:1.82922769px;stroke-linecap:butt;stroke-linejoin:miter;stroke-miterlimit:4;stroke-dasharray:none;stroke-dashoffset:0;stroke-opacity:1;color-rendering:auto;image-rendering:auto;shape-rendering:auto;text-rendering:auto;enable-background:accumulate"
       inkscape:export-filename="G:\Dev\LudumDare38\LudumDare38\Assets\Art\circle4739.png"
       inkscape:export-xdpi="90"
       inkscape:export-ydpi="90" />
    <path
       style="fill:#ff7f2a;fill-rule:evenodd;stroke:#ffff00;stroke-width:1px;stroke-linecap:butt;stroke-linejoin:miter;stroke-opacity:1"
       d="m -215.24413,1449.9076 c -4.6479,-5.7843 -9.76962,3.7613 -15.07401,2.159 -5.85649,-0.8853 -10.34511,3.454 -15.61787,4.7017 -3.28778,2.6323 -6.44546,4.9956 -9.91023,6.9758 -1.33968,4.2523 -1.1603,9.0226 -6.07505,11.055 -4.4839,4.0567 3.32774,8.6076 0.88336,13.3841 -3.40837,3.7066 -6.6036,9.1014 -2.29003,13.8249 2.86132,3.5604 19.70259,5.4824 17.97957,11.019 -1.9897,9.926 -5.66877,13.506 -0.20428,22.1718 3.74655,5.5107 3.20015,17.6497 9.66805,19.1152 5.51222,0.1502 2.33713,6.0755 7.99613,6.5644 5.95438,-0.2077 14.36276,-12.5232 11.40011,-18.53 -2.65682,-4.1227 -8.12282,-4.7957 -5.80607,-11.1372 2.44793,-5.2359 4.36533,-12.5452 6.08751,-18.2569 3.55782,-5.074 11.82419,-10.0376 17.58482,-13.4033 4.18851,-4.3255 2.32358,-10.0729 1.73498,-15.2 -0.0308,-4.7414 0.0954,-10.3104 -3.90403,-13.6507 -3.62271,-4.1869 -5.9736,-9.6417 -5.83203,-15.2341 -1.48611,-3.3452 -5.14485,-5.1378 -8.62093,-5.5587 z"
       id="path4327"
       inkscape:connector-curvature="0"
       sodipodi:nodetypes="ccccccccccccccccccc"
       inkscape:export-filename="G:\Dev\LudumDare38\LudumDare38\Assets\Art\meteor.png"
       inkscape:export-xdpi="90"
       inkscape:export-ydpi="90" />
    <path
       style="color:#000000;clip-rule:nonzero;display:inline;overflow:visible;visibility:visible;opacity:1;isolation:auto;mix-blend-mode:normal;color-interpolation:sRGB;color-interpolation-filters:linearRGB;solid-color:#000000;solid-opacity:1;fill:#803300;fill-opacity:1;fill-rule:nonzero;stroke:#ff0000;stroke-width:1.30467534;stroke-linecap:butt;stroke-linejoin:miter;stroke-miterlimit:4;stroke-dasharray:none;stroke-dashoffset:0;stroke-opacity:1;color-rendering:auto;image-rendering:auto;shape-rendering:auto;text-rendering:auto;enable-background:accumulate"
       d="m -218.31062,1502.4284 a 23.5,23.5 0 0 0 4.13883,-3.4664 c -2.29292,-7.2215 0.8594,-12.3601 6.51302,-16.9 a 23.5,23.5 0 0 0 -3.75792,-12.1447 23.5,23.5 0 0 0 -2.49289,-3.1574 c -0.43531,-0.2453 -0.88137,-0.5409 -1.34327,-0.9088 -0.26278,-0.2093 -0.83623,-0.9213 -1.45119,-1.6517 a 23.5,23.5 0 0 0 -26.39015,-1.6854 c -0.89176,4.3738 4.71565,8.8822 2.39498,9.1451 -3.18398,0.3607 -6.85203,-0.2861 -10.54959,-1.0017 a 23.5,23.5 0 0 0 -0.76502,22.789 c 3.87373,0.879 6.75164,4.1799 7.22489,8.3651 a 23.5,23.5 0 0 0 26.47831,0.6169 z"
       id="path4208"
       inkscape:connector-curvature="0"
       inkscape:export-filename="G:\Dev\LudumDare38\LudumDare38\Assets\Art\meteor.png"
       inkscape:export-xdpi="90"
       inkscape:export-ydpi="90" />
    <ellipse
       style="color:#000000;clip-rule:nonzero;display:inline;overflow:visible;visibility:visible;opacity:1;isolation:auto;mix-blend-mode:normal;color-interpolation:sRGB;color-interpolation-filters:linearRGB;solid-color:#000000;solid-opacity:1;fill:#803300;fill-opacity:1;fill-rule:nonzero;stroke:#ff0000;stroke-width:1.30467534;stroke-linecap:butt;stroke-linejoin:miter;stroke-miterlimit:4;stroke-dasharray:none;stroke-dashoffset:0;stroke-opacity:1;color-rendering:auto;image-rendering:auto;shape-rendering:auto;text-rendering:auto;enable-background:accumulate"
       id="path4238"
       cx="1270.7219"
       cy="-799.10199"
       rx="9.5"
       ry="5.5"
       transform="matrix(-0.65480124,0.75580112,-0.75580112,-0.65480124,0,0)"
       inkscape:export-filename="G:\Dev\LudumDare38\LudumDare38\Assets\Art\meteor.png"
       inkscape:export-xdpi="90"
       inkscape:export-ydpi="90" />
    <path
       style="color:#000000;clip-rule:nonzero;display:inline;overflow:visible;visibility:visible;opacity:1;isolation:auto;mix-blend-mode:normal;color-interpolation:sRGB;color-interpolation-filters:linearRGB;solid-color:#000000;solid-opacity:1;fill:#803300;fill-opacity:1;fill-rule:nonzero;stroke:#ff0000;stroke-width:1.30467534;stroke-linecap:butt;stroke-linejoin:miter;stroke-miterlimit:4;stroke-dasharray:none;stroke-dashoffset:0;stroke-opacity:1;color-rendering:auto;image-rendering:auto;shape-rendering:auto;text-rendering:auto;enable-background:accumulate"
       d="m -234.55802,1490.8145 c -1.68573,-1.6465 -5.28979,-0.6936 -5.7975,1.2923"
       id="path4242"
       inkscape:connector-curvature="0"
       inkscape:export-filename="G:\Dev\LudumDare38\LudumDare38\Assets\Art\meteor.png"
       inkscape:export-xdpi="90"
       inkscape:export-ydpi="90" />
    <path
       style="color:#000000;clip-rule:nonzero;display:inline;overflow:visible;visibility:visible;opacity:1;isolation:auto;mix-blend-mode:normal;color-interpolation:sRGB;color-interpolation-filters:linearRGB;solid-color:#000000;solid-opacity:1;fill:#803300;fill-opacity:1;fill-rule:nonzero;stroke:#ff0000;stroke-width:1.30467534;stroke-linecap:butt;stroke-linejoin:miter;stroke-miterlimit:4;stroke-dasharray:none;stroke-dashoffset:0;stroke-opacity:1;color-rendering:auto;image-rendering:auto;shape-rendering:auto;text-rendering:auto;enable-background:accumulate"
       d="m -222.43955,1476.287 c -0.10917,-1.662 -2.20867,-3.3901 -0.85585,-4.9516"
       id="path4301"
       inkscape:connector-curvature="0"
       inkscape:export-filename="G:\Dev\LudumDare38\LudumDare38\Assets\Art\meteor.png"
       inkscape:export-xdpi="90"
       inkscape:export-ydpi="90" />
  </g>
</svg>
