<?xml version="1.0" encoding="UTF-8" standalone="no"?>
<!-- Created with Inkscape (http://www.inkscape.org/) -->

<svg
   xmlns:dc="http://purl.org/dc/elements/1.1/"
   xmlns:cc="http://creativecommons.org/ns#"
   xmlns:rdf="http://www.w3.org/1999/02/22-rdf-syntax-ns#"
   xmlns:svg="http://www.w3.org/2000/svg"
   xmlns="http://www.w3.org/2000/svg"
   xmlns:sodipodi="http://sodipodi.sourceforge.net/DTD/sodipodi-0.dtd"
   xmlns:inkscape="http://www.inkscape.org/namespaces/inkscape"
   width="210mm"
   height="297mm"
   viewBox="0 0 744.09448819 1052.3622047"
   id="svg2"
   version="1.1"
   inkscape:version="0.91 r13725"
   sodipodi:docname="ludumdare38.svg">
  <defs
     id="defs4" />
  <sodipodi:namedview
     id="base"
     pagecolor="#ffffff"
     bordercolor="#666666"
     borderopacity="1.0"
     inkscape:pageopacity="0.0"
     inkscape:pageshadow="2"
     inkscape:zoom="1.4142136"
     inkscape:cx="-1055.8463"
     inkscape:cy="-677.08147"
     inkscape:document-units="px"
     inkscape:current-layer="layer1"
     showgrid="false"
     inkscape:window-width="1440"
     inkscape:window-height="847"
     inkscape:window-x="1912"
     inkscape:window-y="174"
     inkscape:window-maximized="1"
     showborder="false" />
  <metadata
     id="metadata7">
    <rdf:RDF>
      <cc:Work
         rdf:about="">
        <dc:format>image/svg+xml</dc:format>
        <dc:type
           rdf:resource="http://purl.org/dc/dcmitype/StillImage" />
        <dc:title />
      </cc:Work>
    </rdf:RDF>
  </metadata>
  <g
     inkscape:label="Layer 1"
     inkscape:groupmode="layer"
     id="layer1">
    <rect
       style="color:#000000;clip-rule:nonzero;display:inline;overflow:visible;visibility:visible;opacity:1;isolation:auto;mix-blend-mode:normal;color-interpolation:sRGB;color-interpolation-filters:linearRGB;solid-color:#000000;solid-opacity:1;fill:#225500;fill-opacity:1;fill-rule:nonzero;stroke:#782121;stroke-width:1.30467534;stroke-linecap:butt;stroke-linejoin:miter;stroke-miterlimit:4;stroke-dasharray:none;stroke-dashoffset:0;stroke-opacity:1;color-rendering:auto;image-rendering:auto;shape-rendering:auto;text-rendering:auto;enable-background:accumulate"
       id="rect4372"
       width="423.55695"
       height="156.97771"
       x="-732.56262"
       y="1458.9486"
       inkscape:export-filename="G:\Dev\LudumDare38\LudumDare38\Assets\Art\upgrade.png"
       inkscape:export-xdpi="90"
       inkscape:export-ydpi="90" />
    <path
       sodipodi:nodetypes="ccccccccccccccccccc"
       inkscape:connector-curvature="0"
       id="path4350"
       d="m -108.51547,1454.7213 c -4.81535,-5.6456 -1.97779,1.5849 -7.32684,0.1387 -5.8799,-0.7134 -8.22349,7.5053 -13.45745,8.9069 -3.20925,2.7275 -12.24009,1.8774 -15.64538,3.9582 -1.21454,4.2898 -2.65927,8.9344 -7.51238,11.1099 -4.36314,4.1863 9.26996,8.1799 6.96654,13.0259 -3.29833,3.8049 2.29208,9.5868 6.74216,14.1819 2.96438,3.4751 11.22849,4.6071 9.66838,10.1918 -1.69808,9.98 5.16354,10.2565 10.87952,18.7585 3.90636,5.3986 -6.98602,10.168 -0.47797,11.4434 -5.63128,5.5476 -6.34846,17.6697 -0.67757,17.9927 5.94575,-0.382 13.9603,-10.3892 10.82296,-16.3067 -2.77644,-4.0431 0.89977,-7.9801 3.02977,-14.3867 2.29351,-5.3054 3.99598,-12.6678 5.550122,-18.4275 3.40765,-5.176 2.40969,-10.7791 8.06927,-14.3122 4.06,-4.4463 6.07371,-12.3453 5.33518,-17.4529 -0.16971,-4.7385 -2.81553,-13.6732 -6.9111,-16.895 -3.7438,-4.079 -4.60811,-7.5803 -4.63041,-13.1744 -1.58347,-3.3002 -6.937892,1.5664 -10.424802,1.2475 z"
       style="fill:#ff7f2a;fill-rule:evenodd;stroke:#ffff00;stroke-width:1px;stroke-linecap:butt;stroke-linejoin:miter;stroke-opacity:1"
       inkscape:export-filename="G:\Dev\LudumDare38\LudumDare38\Assets\Art\meteor2.png"
       inkscape:export-xdpi="90"
       inkscape:export-ydpi="90" />
    <text
       xml:space="preserve"
       style="font-style:normal;font-weight:normal;font-size:40px;line-height:125%;font-family:sans-serif;letter-spacing:0px;word-spacing:0px;fill:#0000ff;fill-opacity:1;stroke:none;stroke-width:0.5;stroke-linecap:butt;stroke-linejoin:miter;stroke-opacity:1;stroke-miterlimit:4;stroke-dasharray:none;"
       x="-55.861435"
       y="1004.9861"
       id="text4189"
       sodipodi:linespacing="125%"><tspan
         sodipodi:role="line"
         id="tspan4191"
         x="-55.861435"
         y="1004.9861">A SMALL</tspan><tspan
         sodipodi:role="line"
         x="-55.861435"
         y="1054.9861"
         id="tspan4193">WORLD</tspan></text>
    <text
       xml:space="preserve"
       style="font-style:normal;font-weight:normal;font-size:40px;line-height:125%;font-family:sans-serif;letter-spacing:0px;word-spacing:0px;fill:#000000;fill-opacity:1;stroke:none;stroke-width:1px;stroke-linecap:butt;stroke-linejoin:miter;stroke-opacity:1"
       x="-141.7749"
       y="1107.163"
       id="text4195"
       sodipodi:linespacing="125%"><tspan
         sodipodi:role="line"
         id="tspan4197"
         x="-141.7749"
         y="1107.163">you're the small world</tspan><tspan
         sodipodi:role="line"
         x="-141.7749"
         y="1157.163"
         id="tspan4199">travel, collect water and land</tspan><tspan
         sodipodi:role="line"
         x="-141.7749"
         y="1207.163"
         id="tspan4203">need to avoid bigger worlds</tspan></text>
    <path
       style="fill:#55ddff;fill-opacity:1;stroke:#000000;stroke-width:1.30467534;stroke-miterlimit:4;stroke-dasharray:none;stroke-opacity:1"
       d="m -97.940148,1403.0872 a 37.824338,37.824338 0 0 1 -37.824342,37.8244 37.824338,37.824338 0 0 1 -37.82433,-37.8244 37.824338,37.824338 0 0 1 37.82433,-37.8244 37.824338,37.824338 0 0 1 37.824342,37.8244 z"
       id="path4207"
       inkscape:connector-curvature="0"
       inkscape:export-filename="G:\Dev\LudumDare38\LudumDare38\Assets\world.png"
       inkscape:export-xdpi="90"
       inkscape:export-ydpi="90" />
    <g
       id="g4433"
       inkscape:export-filename="G:\Dev\LudumDare38\LudumDare38\Assets\world.png"
       inkscape:export-xdpi="90"
       inkscape:export-ydpi="90"
       transform="matrix(0.65233769,0,0,0.65233769,-60.577085,501.17744)">
      <g
         id="g4428">
        <path
           style="fill:#71c837;fill-rule:evenodd;stroke:#000000;stroke-width:1px;stroke-linecap:butt;stroke-linejoin:miter;stroke-opacity:1"
           d="m -163.27843,1350.1072 a 57.982758,57.982758 0 0 0 -9.96289,32.4746 57.982758,57.982758 0 0 0 13.24414,36.8164 c 2.64261,-1.416 5.4624,-2.3887 8.60547,-2.4043 5.64314,1.5102 10.72835,4.5243 16.25586,6.334 3.5333,1.3074 8.03749,3.8311 11.39257,0.8047 0.43649,-5.4271 -3.23525,-9.8771 -6.00586,-14.1601 -4.82997,-3.776 -6.0619,-11.1608 -3.12304,-16.459 2.42248,-2.851 5.76076,-5.3232 6.69726,-9.1739 0.95513,-3.9003 -0.625,-8.143 -4.27734,-10.0722 -4.3257,-1.9263 -4.94421,-7.1938 -1.97461,-10.6035 2.5159,-2.8109 5.48156,-8.886 -0.44141,-9.7579 -2.871,-0.5825 -5.13311,1.6036 -7.85351,2.0665 -4.40647,1.5178 -9.68869,3.8377 -14.06836,1.041 -2.9217,-2.0597 -5.12845,-5.6253 -8.48828,-6.9063 z"
           id="path4209"
           inkscape:connector-curvature="0" />
        <path
           style="fill:#71c837;fill-rule:evenodd;stroke:#000000;stroke-width:1px;stroke-linecap:butt;stroke-linejoin:miter;stroke-opacity:1"
           d="m -115.2589,1324.5975 a 57.982758,57.982758 0 0 0 -9.73438,0.8281 c 0.0499,0.052 0.092,0.107 0.14258,0.1582 3.20359,2.8363 7.66682,4.3577 11.92774,3.6308 4.44066,1.609 5.57596,8.2102 2.20507,11.3965 -2.5137,4.196 3.71352,9.7463 7.53711,6.5918 6.97253,-4.3639 14.144041,-8.5019 21.750003,-11.6504 a 57.982758,57.982758 0 0 0 -33.828123,-10.955 z"
           id="path4211"
           inkscape:connector-curvature="0" />
        <path
           style="fill:#71c837;fill-rule:evenodd;stroke:#000000;stroke-width:1px;stroke-linecap:butt;stroke-linejoin:miter;stroke-opacity:1"
           d="m -57.413199,1378.6951 c -5.545911,-0.061 -10.583543,4.3391 -12.154297,9.5567 -5.085249,1.7802 -7.909407,-4.3855 -12.464844,-5.1075 -3.908345,-0.7905 -7.002296,-3.9094 -11.001953,-4.1718 -5.589268,-0.1264 -6.232282,6.6089 -6.546875,10.7871 -0.369933,4.6239 -2.520772,9.3563 -0.656252,13.9492 1.342468,4.3789 6.290503,5.7528 10.375002,5.2129 4.106305,-0.8313 8.819427,1.8861 8.253906,6.5254 -0.504318,7.8458 -9.77262,11.3358 -10.621093,19.0996 -0.02211,0.3982 -0.02288,0.7893 -0.0039,1.1758 a 57.982758,57.982758 0 0 0 34.957032,-53.1407 57.982758,57.982758 0 0 0 -0.136719,-3.8867 z"
           id="path4213"
           inkscape:connector-curvature="0" />
      </g>
    </g>
    <path
       style="fill:#0066ff;fill-rule:evenodd;stroke:#000000;stroke-width:1.40095401;stroke-linecap:butt;stroke-linejoin:miter;stroke-miterlimit:4;stroke-dasharray:none;stroke-opacity:1"
       d="m 49.46056,1371.2137 c -2.104201,20.096 -7.250305,32.2017 -7.250305,32.2017 0,0 -2.652614,17.7498 5.646132,18.2275 8.298746,0.4777 7.584602,-17.5279 7.584602,-17.5279 z"
       id="path4439"
       inkscape:connector-curvature="0"
       sodipodi:nodetypes="ccccc"
       inkscape:export-filename="G:\Dev\LudumDare38\LudumDare38\Assets\Art\water.png"
       inkscape:export-xdpi="90"
       inkscape:export-ydpi="90" />
    <path
       style="fill:#502d16;fill-opacity:1;stroke:#000000;stroke-width:0.86034817;stroke-miterlimit:4;stroke-dasharray:none;stroke-opacity:1"
       d="m 114.29432,1378.8916 c -7.62917,-3.0268 -16.025284,0.8349 -18.616363,8.9822 -4.22692,5.5016 -4.127556,13.973 0.385719,19.6441 4.466324,5.197 11.364554,4.6787 16.973764,7.4302 6.93994,-0.067 12.84449,-7.4722 13.67552,-14.6871 2.43812,-8.6173 -9.56318,-5.9192 -9.3934,-12.6145 1.1843,-3.063 1.50623,-8.8665 -3.02524,-8.7549 z"
       id="path4506"
       inkscape:connector-curvature="0"
       inkscape:export-filename="G:\Dev\LudumDare38\LudumDare38\Assets\Art\ground.png"
       inkscape:export-xdpi="90"
       inkscape:export-ydpi="90" />
    <g
       id="g4548"
       inkscape:export-filename="G:\Dev\LudumDare38\LudumDare38\Assets\Art\ground.png"
       inkscape:export-xdpi="90"
       inkscape:export-ydpi="90"
       transform="matrix(0.57908593,0,0,0.57908593,38.789041,595.75302)">
      <path
         inkscape:connector-curvature="0"
         id="path4538"
         d="m 115.55273,1368.7822 c -7.62861,8.19 -3.01034,27.9047 4.31535,30.453"
         style="fill:none;fill-rule:evenodd;stroke:#000000;stroke-width:0.74285018px;stroke-linecap:butt;stroke-linejoin:miter;stroke-opacity:1" />
      <path
         inkscape:connector-curvature="0"
         id="path4540"
         d="m 138.0604,1396.4806 c 6.37716,-11.0166 -5.03908,-15.4107 -6.55089,-23.8508"
         style="fill:none;fill-rule:evenodd;stroke:#000000;stroke-width:0.74285018px;stroke-linecap:butt;stroke-linejoin:miter;stroke-opacity:1" />
      <path
         inkscape:connector-curvature="0"
         id="path4542"
         d="m 126.72371,1362.4498 c -7.48532,-6.8304 5.54156,2.4953 -4.50888,-1.0008 -0.60878,-0.2117 -1.91464,-3.3605 -2.3779,-3.0978 -2.25606,1.2789 -3.97658,4.6457 -6.60983,5.0806"
         style="fill:none;fill-rule:evenodd;stroke:#000000;stroke-width:0.74285018px;stroke-linecap:butt;stroke-linejoin:miter;stroke-opacity:1" />
      <path
         inkscape:connector-curvature="0"
         id="path4544"
         d="m 102.19851,1379.4643 c -4.941822,5.1491 -0.27841,8.0891 1.68276,11.9391 0.88123,1.7298 -1.81731,5.0679 -0.77742,7.1094 0.68313,1.341 2.58961,1.3383 3.6191,2.3944"
         style="fill:none;fill-rule:evenodd;stroke:#000000;stroke-width:0.74285018px;stroke-linecap:butt;stroke-linejoin:miter;stroke-opacity:1" />
      <path
         inkscape:connector-curvature="0"
         id="path4546"
         d="m 119.86031,1389.0142 c -0.40147,-1.6225 -1.37872,-4.9833 0.15678,-6.7576 5.21925,-6.0312 6.46994,7.2055 6.91684,8.0828 0.82004,1.61 3.50194,2.1644 4.322,3.7742 0.93497,1.8355 0.0863,4.701 1.57044,6.2231"
         style="fill:none;fill-rule:evenodd;stroke:#000000;stroke-width:0.74285018px;stroke-linecap:butt;stroke-linejoin:miter;stroke-opacity:1" />
    </g>
    <path
       inkscape:export-ydpi="90"
       inkscape:export-xdpi="90"
       inkscape:export-filename="G:\Dev\LudumDare38\LudumDare38\Assets\Art\bullyworld.png"
       inkscape:connector-curvature="0"
       id="path4555"
       d="m 134.93749,1603.1984 a 64.933928,64.933928 0 0 1 -64.933938,64.934 64.933928,64.933928 0 0 1 -64.9339197,-64.934 64.933928,64.933928 0 0 1 64.9339197,-64.9339 64.933928,64.933928 0 0 1 64.933938,64.9339 z"
       style="fill:#2c89a0;fill-opacity:1;stroke:#000000;stroke-width:2.23976684;stroke-miterlimit:4;stroke-dasharray:none;stroke-opacity:1" />
    <path
       style="fill:#806600;fill-rule:evenodd;stroke:#000000;stroke-width:1.11988342px;stroke-linecap:butt;stroke-linejoin:miter;stroke-opacity:1"
       d="m 54.615789,1551.5821 c -12.790034,2.1913 -21.564811,25.5574 -35.811152,12.6945 -0.158517,-0.096 -0.320273,-0.1705 -0.479835,-0.2595 a 64.933928,64.933928 0 0 0 -11.4904114,24.4384 64.933928,64.933928 0 0 0 1.6432118,8.4002 c 4.3517866,6.5239 9.5672226,12.2439 17.4280036,13.7462 11.591756,-0.2689 25.488618,-8.2774 28.470265,-20.1214 -5.272949,-11.9145 3.755656,-23.1876 1.911799,-35.3163 l -0.680522,-1.8001 -0.991359,-1.782 z"
       id="path4561"
       inkscape:connector-curvature="0"
       inkscape:export-filename="G:\Dev\LudumDare38\LudumDare38\Assets\Art\bullyworld.png"
       inkscape:export-xdpi="90"
       inkscape:export-ydpi="90" />
    <path
       style="fill:#806600;fill-rule:evenodd;stroke:#000000;stroke-width:1.11988342px;stroke-linecap:butt;stroke-linejoin:miter;stroke-opacity:1"
       d="m 132.84512,1587.0433 c -2.61481,0 -5.17869,0.3003 -7.54611,1.6907 -4.63422,2.1983 -5.35568,7.9046 -4.09456,12.3428 1.58754,4.4152 -0.65791,10.0796 -5.89033,10.2058 -8.77547,0.7145 -14.14715,-8.9902 -22.887613,-8.6703 -0.44482,0.04 -0.87843,0.1024 -1.303612,0.1859 a 64.933928,64.933928 0 0 0 37.461415,28.2245 64.933928,64.933928 0 0 0 6.35403,-27.8243 64.933928,64.933928 0 0 0 -2.09322,-16.1551 z"
       id="path4565"
       inkscape:connector-curvature="0"
       inkscape:export-filename="G:\Dev\LudumDare38\LudumDare38\Assets\Art\bullyworld.png"
       inkscape:export-xdpi="90"
       inkscape:export-ydpi="90" />
    <path
       style="color:#000000;clip-rule:nonzero;display:inline;overflow:visible;visibility:visible;opacity:1;isolation:auto;mix-blend-mode:normal;color-interpolation:sRGB;color-interpolation-filters:linearRGB;solid-color:#000000;solid-opacity:1;fill:#806600;fill-opacity:1;fill-rule:evenodd;stroke:#000000;stroke-width:1.11988342px;stroke-linecap:butt;stroke-linejoin:miter;stroke-miterlimit:4;stroke-dasharray:none;stroke-dashoffset:0;stroke-opacity:1;color-rendering:auto;image-rendering:auto;shape-rendering:auto;text-rendering:auto;enable-background:accumulate"
       d="m 97.636554,1544.5234 c 0.205811,1.2496 0.676227,2.5197 1.456101,3.6938 2.916085,6.147 -1.027613,23.1654 -9.220993,13.5546 -4.180857,-6.9692 -13.17652,-13.7877 -21.121838,-8.035 -6.201583,8.7316 9.069706,13.7479 14.638016,18.0497 -0.69541,7.4939 8.71701,7.9911 13.61949,5.6116 7.95985,-3.2786 24.88573,-0.2872 24.2619,-12.5858 -0.14865,-0.7042 -0.32244,-1.403 -0.50851,-2.099 a 64.933928,64.933928 0 0 0 -23.124166,-18.1899 z"
       id="path4629"
       inkscape:connector-curvature="0"
       inkscape:export-filename="G:\Dev\LudumDare38\LudumDare38\Assets\Art\bullyworld.png"
       inkscape:export-xdpi="90"
       inkscape:export-ydpi="90" />
    <path
       style="color:#000000;clip-rule:nonzero;display:inline;overflow:visible;visibility:visible;opacity:1;isolation:auto;mix-blend-mode:normal;color-interpolation:sRGB;color-interpolation-filters:linearRGB;solid-color:#000000;solid-opacity:1;fill:#806600;fill-opacity:1;fill-rule:evenodd;stroke:#000000;stroke-width:1.11988342px;stroke-linecap:butt;stroke-linejoin:miter;stroke-miterlimit:4;stroke-dasharray:none;stroke-dashoffset:0;stroke-opacity:1;color-rendering:auto;image-rendering:auto;shape-rendering:auto;text-rendering:auto;enable-background:accumulate"
       d="m 79.422398,1620.8218 c -3.545562,-0.1006 -8.61824,1.2237 -10.784233,1.2237 -3.769788,0 -9.418942,-0.878 -12.564761,1.6387 -6.381172,5.1049 -9.499997,11.3562 -14.749674,17.4808 -3.698511,4.315 -6.40342,9.5602 -9.537871,14.4464 a 64.933928,64.933928 0 0 0 38.217876,12.521 64.933928,64.933928 0 0 0 40.132685,-13.9047 c -7.24907,-12.1858 -15.943603,-24.7968 -27.841035,-32.7284 -0.67798,-0.452 -1.691131,-0.6439 -2.872987,-0.6775 z"
       id="path4654"
       inkscape:connector-curvature="0"
       inkscape:export-filename="G:\Dev\LudumDare38\LudumDare38\Assets\Art\bullyworld.png"
       inkscape:export-xdpi="90"
       inkscape:export-ydpi="90" />
    <path
       style="color:#000000;clip-rule:nonzero;display:inline;overflow:visible;visibility:visible;opacity:0.29800002;isolation:auto;mix-blend-mode:normal;color-interpolation:sRGB;color-interpolation-filters:linearRGB;solid-color:#000000;solid-opacity:1;fill:#ffeeaa;fill-opacity:1;fill-rule:evenodd;stroke:#000000;stroke-width:1.25570047px;stroke-linecap:butt;stroke-linejoin:miter;stroke-miterlimit:4;stroke-dasharray:none;stroke-dashoffset:0;stroke-opacity:1;color-rendering:auto;image-rendering:auto;shape-rendering:auto;text-rendering:auto;enable-background:accumulate"
       d="m 459.18682,1384.4104 c -13.45309,12.6565 -6.24416,29.005 10.62346,31.5475 10.39194,7.588 30.13716,15.429 24.32002,31.5563 -9.90094,17.8569 15.91715,23.3086 18.724,38.0632 -2.23305,13.0957 -20.5427,25.1339 -6.23415,38.0074 -1.81234,20.3856 -31.83792,16.8704 -38.62362,33.2551 2.0479,14.7821 -12.81397,38.9697 -25.27442,17.836 -16.15139,-7.7031 -13.17451,29.802 -32.94379,20.652 -13.29983,-13.3563 -10.89253,21.8822 -25.55072,5.2692 -7.23005,-8.8624 -14.17952,-13.6885 -22.30018,-2.9813 -12.14645,-1.3724 -24.26231,-19.7851 -21.29443,-32.737 -15.99303,1.3057 -28.38881,-15.4583 -31.16896,-29.3628 -3.24807,-12.1858 -27.38985,-21.6397 -15.00042,-35.0023 15.70331,-11.8245 -12.8033,-24.2735 -3.8443,-38.8773 3.27194,-8.3191 18.94397,0.874 8.82601,-10.4838 -6.63478,-11.4183 -21.93355,-30.58 -7.71679,-41.6582 7.81414,-7.1198 26.99511,-4.9137 29.55723,-4.4032 -4.94689,-15.4669 25.93707,-27.6417 29.92029,-9.926 13.05109,4.9158 26.35971,-25.8793 41.71441,-16.8213 7.51984,22.0998 22.97702,-18.8308 36.16524,-0.5558 7.53239,6.2691 35.40831,-14.8195 31.15958,4.6512 l -1.05825,1.971 0,0 z"
       id="path4669"
       inkscape:connector-curvature="0"
       inkscape:export-filename="G:\Dev\LudumDare38\LudumDare38\Assets\Art\sun2.png"
       inkscape:export-xdpi="90"
       inkscape:export-ydpi="90" />
    <path
       inkscape:connector-curvature="0"
       id="path4703"
       d="m 504.13959,1429.4677 c -18.02369,4.0396 -20.14685,21.7804 -6.92606,32.5596 5.07808,11.823 18.0765,28.6277 4.85621,39.5435 -17.61554,10.3241 1.82589,28.1657 -3.27367,42.2927 -8.59181,10.1324 -30.47996,11.1662 -24.72346,29.5327 -11.94273,16.6201 -35.99136,-1.6982 -50.17625,8.9459 -5.76671,13.764 -30.87595,27.0093 -30.83486,2.4758 -9.9759,-14.8555 -26.51681,18.9365 -38.86918,0.993 -4.64257,-18.268 -20.51915,13.2832 -24.6719,-8.4794 -1.70802,-11.3091 -5.23038,-19.0021 -17.67233,-13.9239 -9.75385,-7.3677 -10.80211,-29.384 -1.65117,-39.0184 -14.42811,-7.0222 -16.55703,-27.7624 -11.86746,-41.1441 3.41149,-12.1411 -12.54893,-32.5731 4.91904,-37.7622 19.53644,-2.1775 1.3453,-27.4102 16.49336,-35.4146 7.05291,-5.4926 15.85737,10.401 12.93513,-4.5266 0.1061,-13.2056 -3.29978,-37.4877 14.57722,-39.7801 10.35098,-2.1471 25.73384,9.521 27.67873,11.2653 3.62067,-15.8299 36.39947,-10.5768 30.80407,6.6975 8.72754,10.8778 35.8656,-8.845 44.4658,6.7707 -4.78491,22.8485 29.36445,-4.502 31.40571,17.942 3.28905,9.2315 38.01937,5.2816 24.44589,19.8735 l -1.91458,1.1571 0,0 z"
       style="color:#000000;clip-rule:nonzero;display:inline;overflow:visible;visibility:visible;opacity:0.29800002;isolation:auto;mix-blend-mode:normal;color-interpolation:sRGB;color-interpolation-filters:linearRGB;solid-color:#000000;solid-opacity:1;fill:#ffeeaa;fill-opacity:1;fill-rule:evenodd;stroke:#000000;stroke-width:1.25570047px;stroke-linecap:butt;stroke-linejoin:miter;stroke-miterlimit:4;stroke-dasharray:none;stroke-dashoffset:0;stroke-opacity:1;color-rendering:auto;image-rendering:auto;shape-rendering:auto;text-rendering:auto;enable-background:accumulate"
       inkscape:export-filename="G:\Dev\LudumDare38\LudumDare38\Assets\Art\sun2.png"
       inkscape:export-xdpi="90"
       inkscape:export-ydpi="90" />
    <path
       style="color:#000000;clip-rule:nonzero;display:inline;overflow:visible;visibility:visible;opacity:0.29800002;isolation:auto;mix-blend-mode:normal;color-interpolation:sRGB;color-interpolation-filters:linearRGB;solid-color:#000000;solid-opacity:1;fill:#ffeeaa;fill-opacity:1;fill-rule:evenodd;stroke:#000000;stroke-width:1.25570047px;stroke-linecap:butt;stroke-linejoin:miter;stroke-miterlimit:4;stroke-dasharray:none;stroke-dashoffset:0;stroke-opacity:1;color-rendering:auto;image-rendering:auto;shape-rendering:auto;text-rendering:auto;enable-background:accumulate"
       d="m 512.82516,1512.1813 c -16.02273,-9.1893 -29.56706,2.4638 -27.0925,19.3414 -4.23677,12.1501 -5.9945,33.3223 -23.11663,32.4485 -19.96482,-4.2781 -17.66995,22.0094 -30.96989,28.9872 -13.17894,1.6732 -30.0229,-12.3425 -38.1772,5.0922 -20.03111,4.1965 -25.40267,-25.5532 -43.05287,-27.2788 -13.54697,6.2595 -41.01192,-0.9231 -24.41718,-18.9926 2.67134,-17.6938 -32.34575,-3.935 -29.34255,-25.5111 8.90952,-16.6101 -24.10458,-4.0556 -12.47424,-22.9129 6.37569,-9.4953 8.97147,-17.5482 -3.63507,-22.2029 -2.2205,-12.0203 11.87114,-28.9686 25.12628,-29.8969 -5.90173,-14.9215 6.53112,-31.658 19.02545,-38.363 10.7139,-6.6525 12.7358,-32.5005 29.12469,-24.5342 15.88138,11.5842 19.49907,-19.311 36.07755,-14.9879 8.91108,0.7103 4.67473,18.3789 12.59791,5.3945 8.99435,-9.6697 22.87668,-29.8811 37.61155,-19.5019 9.08515,5.4049 12.5544,24.3981 12.81135,26.9979 13.35876,-9.2324 33.99149,16.774 18.20082,25.7386 -0.90648,13.9167 32.42845,17.6911 28.22903,35.0167 -18.95635,13.6237 24.70058,16.5053 11.05266,34.4395 -3.80672,9.0303 24.47922,29.5657 4.61457,31.165 l -2.19356,-0.4392 0,0 z"
       id="path4705"
       inkscape:connector-curvature="0"
       inkscape:export-filename="G:\Dev\LudumDare38\LudumDare38\Assets\Art\sun2.png"
       inkscape:export-xdpi="90"
       inkscape:export-ydpi="90" />
    <path
       inkscape:connector-curvature="0"
       id="path4715"
       d="m 240.98462,1717.0627 c 11.18817,14.8116 28.3027,9.3795 32.66947,-7.1975 8.70661,-9.5609 18.67877,-28.4392 34.16162,-20.8808 16.7685,11.8258 25.01125,-13.3786 40.05651,-14.5851 12.84207,3.6492 22.88656,23.246 37.29804,10.3444 20.1709,4.0184 13.40729,33.6363 29.04243,42.1902 14.99055,-0.4453 37.54686,17.0225 15.08284,27.183 -9.44524,15.3027 28.34846,16.3901 17.06579,35.1506 -14.7845,11.8414 20.6829,13.2524 2.49745,26.0983 -9.63732,6.2638 -15.21171,12.6844 -5.39355,21.9572 -2.68649,11.987 -22.39467,22.098 -35.0135,17.7301 -0.42744,16.12 -18.51868,26.6891 -32.71171,27.961 -12.52658,1.9256 -24.58636,25.0218 -36.59515,11.1965 -10.11334,-16.9697 -25.63819,10.1631 -39.25862,-0.3694 -7.95719,-4.1698 2.92481,-18.8322 -9.51847,-9.9533 -12.12654,5.3923 -32.92775,18.6021 -42.45635,3.1984 -6.26719,-8.578 -1.98587,-27.5028 -1.19842,-30.0073 -15.98861,3.2675 -24.80787,-28.9071 -6.67683,-30.9682 6.32473,-12.507 -23.00145,-29.1385 -12.28881,-43.4985 22.89425,-5.1197 -16.3255,-24.9956 3.36117,-36.1928 7.07914,-6.8466 -10.97168,-36.9812 8.02142,-30.6278 l 1.85457,1.2707 0,0 z"
       style="opacity:0.29800002;fill:#ffeeaa;fill-rule:evenodd;stroke:#000000;stroke-width:1.26191628px;stroke-linecap:butt;stroke-linejoin:miter;stroke-opacity:1"
       inkscape:export-filename="G:\Dev\LudumDare38\LudumDare38\Assets\Art\circle4739.png"
       inkscape:export-xdpi="90"
       inkscape:export-ydpi="90" />
    <path
       style="opacity:0.29800002;fill:#ffeeaa;fill-rule:evenodd;stroke:#000000;stroke-width:1.26191628px;stroke-linecap:butt;stroke-linejoin:miter;stroke-opacity:1"
       d="m 457.00776,1775.9494 c -18.1535,-3.874 -27.53638,11.4353 -19.98669,26.8259 -0.32391,12.9271 4.49442,33.7265 -12.15811,38.1471 -20.41782,2.036 -10.15112,26.486 -20.73557,37.2463 -12.09724,5.6474 -32.51838,-2.5929 -34.96844,16.594 -17.87944,10.1655 -32.15323,-16.6529 -49.57255,-12.8852 -11.04133,10.149 -39.52784,11.7082 -29.19599,-10.6774 -2.87612,-17.7515 -32.15985,6.1653 -35.91038,-15.403 3.42594,-18.6297 -24.31089,3.5198 -18.97132,-18.0955 3.18564,-11.0436 3.19715,-19.5466 -10.29513,-20.1301 -5.8153,-10.8205 2.46559,-31.3648 14.86447,-36.3227 -10.22859,-12.4665 -3.46998,-32.2989 6.42735,-42.5507 8.20968,-9.6553 2.20863,-35.01 20.33701,-32.4189 18.75354,6.2091 12.72987,-24.4653 29.92114,-25.4184 8.74512,-2.0562 10.11595,16.1517 13.71118,1.2941 5.63799,-12.0142 12.71673,-35.6167 30.00317,-30.2089 10.35301,2.3828 19.50403,19.4922 20.54811,21.9011 9.94851,-12.9359 37.67651,5.6151 25.31867,19.0414 3.40528,13.5953 36.46237,6.9725 37.76328,24.8407 -13.95668,18.8566 28.70347,8.2104 21.14987,29.5618 -0.87016,9.81 32.50152,20.7761 13.98399,28.4052 l -2.23385,0.2533 0,0 z"
       id="path4717"
       inkscape:connector-curvature="0"
       inkscape:export-filename="G:\Dev\LudumDare38\LudumDare38\Assets\Art\circle4739.png"
       inkscape:export-xdpi="90"
       inkscape:export-ydpi="90" />
    <path
       inkscape:connector-curvature="0"
       id="path4719"
       d="m 437.7509,1709.9842 c -17.21717,6.9374 -16.43742,24.8763 -1.57332,33.4158 6.95884,10.8992 22.5824,25.4503 11.24713,38.4257 -15.79042,13.1033 6.39145,27.6351 3.63175,42.4742 -6.87265,11.4456 -28.41106,16.0307 -19.71535,33.3086 -9.14066,18.4245 -35.96895,4.1692 -48.30503,17.0319 -3.48037,14.5878 -26.22712,31.8069 -30.17633,7.4702 -12.30918,-13.1099 -23.21714,23.0919 -38.3852,7.3062 -7.57511,-17.3614 -18.18863,16.5101 -25.84629,-4.3966 -3.53304,-10.9374 -8.2773,-17.9937 -19.79018,-10.9341 -10.87111,-5.7203 -15.49134,-27.3835 -7.98319,-38.4261 -15.45042,-4.6175 -20.93472,-24.8393 -18.46047,-38.8729 1.40866,-12.5952 -17.74233,-30.262 -1.26315,-38.2488 19.02014,-5.3367 -3.12375,-27.4016 10.59688,-37.8032 6.10112,-6.594 17.41736,7.7359 12.09166,-6.5926 -2.04255,-13.1134 -9.36923,-36.64 7.98662,-41.8208 9.91591,-3.8128 27.0688,5.2567 29.28121,6.6702 1.01615,-16.2873 34.37731,-16.4088 31.63769,1.6322 10.42422,9.3681 34.12957,-14.6046 45.19801,-0.5172 -1.02921,23.4372 28.38871,-9.2402 34.06318,12.6856 4.76312,8.62 38.56285,-0.9456 27.47509,15.7328 l -1.71051,1.4589 0,0 z"
       style="opacity:0.29800002;fill:#ffeeaa;fill-rule:evenodd;stroke:#000000;stroke-width:1.26191628px;stroke-linecap:butt;stroke-linejoin:miter;stroke-opacity:1"
       inkscape:export-filename="G:\Dev\LudumDare38\LudumDare38\Assets\Art\circle4739.png"
       inkscape:export-xdpi="90"
       inkscape:export-ydpi="90" />
    <circle
       style="color:#000000;clip-rule:nonzero;display:inline;overflow:visible;visibility:visible;opacity:1;isolation:auto;mix-blend-mode:normal;color-interpolation:sRGB;color-interpolation-filters:linearRGB;solid-color:#000000;solid-opacity:1;fill:#ffdd55;fill-opacity:1;fill-rule:evenodd;stroke:#a0892c;stroke-width:1.82021749px;stroke-linecap:butt;stroke-linejoin:miter;stroke-miterlimit:4;stroke-dasharray:none;stroke-dashoffset:0;stroke-opacity:1;color-rendering:auto;image-rendering:auto;shape-rendering:auto;text-rendering:auto;enable-background:accumulate"
       id="path4667"
       cx="399.07932"
       cy="1485.3363"
       r="79.912292"
       inkscape:export-filename="G:\Dev\LudumDare38\LudumDare38\Assets\Art\sun2.png"
       inkscape:export-xdpi="90"
       inkscape:export-ydpi="90" />
    <circle
       r="80.307861"
       cy="1780.8639"
       cx="341.43256"
       id="circle4739"
       style="color:#000000;clip-rule:nonzero;display:inline;overflow:visible;visibility:visible;opacity:1;isolation:auto;mix-blend-mode:normal;color-interpolation:sRGB;color-interpolation-filters:linearRGB;solid-color:#000000;solid-opacity:1;fill:#ffdd55;fill-opacity:1;fill-rule:evenodd;stroke:#a0892c;stroke-width:1.82922769px;stroke-linecap:butt;stroke-linejoin:miter;stroke-miterlimit:4;stroke-dasharray:none;stroke-dashoffset:0;stroke-opacity:1;color-rendering:auto;image-rendering:auto;shape-rendering:auto;text-rendering:auto;enable-background:accumulate"
       inkscape:export-filename="G:\Dev\LudumDare38\LudumDare38\Assets\Art\circle4739.png"
       inkscape:export-xdpi="90"
       inkscape:export-ydpi="90" />
    <path
       style="fill:#ff7f2a;fill-rule:evenodd;stroke:#ffff00;stroke-width:1px;stroke-linecap:butt;stroke-linejoin:miter;stroke-opacity:1"
       d="m -215.24413,1449.9076 c -4.6479,-5.7843 -9.76962,3.7613 -15.07401,2.159 -5.85649,-0.8853 -10.34511,3.454 -15.61787,4.7017 -3.28778,2.6323 -6.44546,4.9956 -9.91023,6.9758 -1.33968,4.2523 -1.1603,9.0226 -6.07505,11.055 -4.4839,4.0567 3.32774,8.6076 0.88336,13.3841 -3.40837,3.7066 -6.6036,9.1014 -2.29003,13.8249 2.86132,3.5604 19.70259,5.4824 17.97957,11.019 -1.9897,9.926 -5.66877,13.506 -0.20428,22.1718 3.74655,5.5107 3.20015,17.6497 9.66805,19.1152 5.51222,0.1502 2.33713,6.0755 7.99613,6.5644 5.95438,-0.2077 14.36276,-12.5232 11.40011,-18.53 -2.65682,-4.1227 -8.12282,-4.7957 -5.80607,-11.1372 2.44793,-5.2359 4.36533,-12.5452 6.08751,-18.2569 3.55782,-5.074 11.82419,-10.0376 17.58482,-13.4033 4.18851,-4.3255 2.32358,-10.0729 1.73498,-15.2 -0.0308,-4.7414 0.0954,-10.3104 -3.90403,-13.6507 -3.62271,-4.1869 -5.9736,-9.6417 -5.83203,-15.2341 -1.48611,-3.3452 -5.14485,-5.1378 -8.62093,-5.5587 z"
       id="path4327"
       inkscape:connector-curvature="0"
       sodipodi:nodetypes="ccccccccccccccccccc"
       inkscape:export-filename="G:\Dev\LudumDare38\LudumDare38\Assets\Art\meteor.png"
       inkscape:export-xdpi="90"
       inkscape:export-ydpi="90" />
    <path
       style="color:#000000;clip-rule:nonzero;display:inline;overflow:visible;visibility:visible;opacity:1;isolation:auto;mix-blend-mode:normal;color-interpolation:sRGB;color-interpolation-filters:linearRGB;solid-color:#000000;solid-opacity:1;fill:#803300;fill-opacity:1;fill-rule:nonzero;stroke:#ff0000;stroke-width:1.30467534;stroke-linecap:butt;stroke-linejoin:miter;stroke-miterlimit:4;stroke-dasharray:none;stroke-dashoffset:0;stroke-opacity:1;color-rendering:auto;image-rendering:auto;shape-rendering:auto;text-rendering:auto;enable-background:accumulate"
       d="m -218.31062,1502.4284 a 23.5,23.5 0 0 0 4.13883,-3.4664 c -2.29292,-7.2215 0.8594,-12.3601 6.51302,-16.9 a 23.5,23.5 0 0 0 -3.75792,-12.1447 23.5,23.5 0 0 0 -2.49289,-3.1574 c -0.43531,-0.2453 -0.88137,-0.5409 -1.34327,-0.9088 -0.26278,-0.2093 -0.83623,-0.9213 -1.45119,-1.6517 a 23.5,23.5 0 0 0 -26.39015,-1.6854 c -0.89176,4.3738 4.71565,8.8822 2.39498,9.1451 -3.18398,0.3607 -6.85203,-0.2861 -10.54959,-1.0017 a 23.5,23.5 0 0 0 -0.76502,22.789 c 3.87373,0.879 6.75164,4.1799 7.22489,8.3651 a 23.5,23.5 0 0 0 26.47831,0.6169 z"
       id="path4208"
       inkscape:connector-curvature="0"
       inkscape:export-filename="G:\Dev\LudumDare38\LudumDare38\Assets\Art\meteor.png"
       inkscape:export-xdpi="90"
       inkscape:export-ydpi="90" />
    <ellipse
       style="color:#000000;clip-rule:nonzero;display:inline;overflow:visible;visibility:visible;opacity:1;isolation:auto;mix-blend-mode:normal;color-interpolation:sRGB;color-interpolation-filters:linearRGB;solid-color:#000000;solid-opacity:1;fill:#803300;fill-opacity:1;fill-rule:nonzero;stroke:#ff0000;stroke-width:1.30467534;stroke-linecap:butt;stroke-linejoin:miter;stroke-miterlimit:4;stroke-dasharray:none;stroke-dashoffset:0;stroke-opacity:1;color-rendering:auto;image-rendering:auto;shape-rendering:auto;text-rendering:auto;enable-background:accumulate"
       id="path4238"
       cx="1270.7219"
       cy="-799.10199"
       rx="9.5"
       ry="5.5"
       transform="matrix(-0.65480124,0.75580112,-0.75580112,-0.65480124,0,0)"
       inkscape:export-filename="G:\Dev\LudumDare38\LudumDare38\Assets\Art\meteor.png"
       inkscape:export-xdpi="90"
       inkscape:export-ydpi="90" />
    <path
       style="color:#000000;clip-rule:nonzero;display:inline;overflow:visible;visibility:visible;opacity:1;isolation:auto;mix-blend-mode:normal;color-interpolation:sRGB;color-interpolation-filters:linearRGB;solid-color:#000000;solid-opacity:1;fill:#803300;fill-opacity:1;fill-rule:nonzero;stroke:#ff0000;stroke-width:1.30467534;stroke-linecap:butt;stroke-linejoin:miter;stroke-miterlimit:4;stroke-dasharray:none;stroke-dashoffset:0;stroke-opacity:1;color-rendering:auto;image-rendering:auto;shape-rendering:auto;text-rendering:auto;enable-background:accumulate"
       d="m -234.55802,1490.8145 c -1.68573,-1.6465 -5.28979,-0.6936 -5.7975,1.2923"
       id="path4242"
       inkscape:connector-curvature="0"
       inkscape:export-filename="G:\Dev\LudumDare38\LudumDare38\Assets\Art\meteor.png"
       inkscape:export-xdpi="90"
       inkscape:export-ydpi="90" />
    <path
       style="color:#000000;clip-rule:nonzero;display:inline;overflow:visible;visibility:visible;opacity:1;isolation:auto;mix-blend-mode:normal;color-interpolation:sRGB;color-interpolation-filters:linearRGB;solid-color:#000000;solid-opacity:1;fill:#803300;fill-opacity:1;fill-rule:nonzero;stroke:#ff0000;stroke-width:1.30467534;stroke-linecap:butt;stroke-linejoin:miter;stroke-miterlimit:4;stroke-dasharray:none;stroke-dashoffset:0;stroke-opacity:1;color-rendering:auto;image-rendering:auto;shape-rendering:auto;text-rendering:auto;enable-background:accumulate"
       d="m -222.43955,1476.287 c -0.10917,-1.662 -2.20867,-3.3901 -0.85585,-4.9516"
       id="path4301"
       inkscape:connector-curvature="0"
       inkscape:export-filename="G:\Dev\LudumDare38\LudumDare38\Assets\Art\meteor.png"
       inkscape:export-xdpi="90"
       inkscape:export-ydpi="90" />
    <path
       style="color:#000000;clip-rule:nonzero;display:inline;overflow:visible;visibility:visible;opacity:1;isolation:auto;mix-blend-mode:normal;color-interpolation:sRGB;color-interpolation-filters:linearRGB;solid-color:#000000;solid-opacity:1;fill:#ff7f2a;fill-opacity:1;fill-rule:nonzero;stroke:#ffff00;stroke-width:1.30467534;stroke-linecap:butt;stroke-linejoin:miter;stroke-miterlimit:4;stroke-dasharray:none;stroke-dashoffset:0;stroke-opacity:1;color-rendering:auto;image-rendering:auto;shape-rendering:auto;text-rendering:auto;enable-background:accumulate"
       id="path4352"
       d="m -703.71838,1496.6382 c -0.20387,2.5728 -0.57606,5.1258 -0.94879,7.6783 -0.9176,5.5741 -1.33766,11.2055 -1.49661,16.8472 -0.26553,6.3165 0.75933,12.5584 2.04359,18.716 1.10539,5.2288 2.93051,10.2477 5.11754,15.1104 1.1358,2.3261 2.31191,4.6546 4.13636,6.5187 0.2178,0.1715 0.41362,0.3753 0.6534,0.5144 1.92968,1.119 5.38866,1.2571 7.5679,1.3104 4.49712,-0.086 8.92089,-1.1578 13.00976,-3.0219 0.86067,-0.3924 1.68791,-0.8543 2.53187,-1.2814 -0.58341,0.3002 -1.93725,1.5297 -1.75023,0.9008 0.22721,-0.7641 1.29567,-0.9312 1.91023,-1.4389 0.54167,-0.4476 1.06394,-0.9207 1.55448,-1.4238 1.36648,-1.4014 2.19776,-2.7357 3.11707,-4.4327 1.00837,-2.0958 1.36973,-4.3648 1.47959,-6.6627 0.0567,-1.7808 0.008,-3.5627 -0.0127,-5.3437 -0.0288,-1.5183 -0.0315,-3.0367 -0.0433,-4.5552 0.0659,-1.6881 -0.14998,-3.3636 -0.35724,-5.0348 -0.47347,-3.064 -0.79341,-6.1462 -1.13925,-9.226 -0.2776,-2.7211 -0.44865,-5.4511 -0.54418,-8.1842 -0.0526,-2.0623 -0.0601,-4.1252 -0.0586,-6.1881 0.004,-1.884 0.004,-3.7679 -0.009,-5.6519 -0.003,-1.0697 -0.0208,-2.1392 -0.0346,-3.2088 0,0 4.62182,-2.3549 4.62182,-2.3549 l 0,0 c -0.014,1.0818 -0.0323,2.1635 -0.0365,3.2453 -0.0151,1.8889 -0.0192,3.7777 -0.0197,5.6666 -9.2e-4,2.0643 -0.0144,4.1289 0.0187,6.193 0.0508,2.7341 0.15021,5.4691 0.44858,8.1892 0.30803,3.0696 0.60065,6.1401 1.21439,9.1684 0.2578,1.6746 0.56243,3.3496 0.47604,5.0514 -0.006,1.5229 0.002,3.0458 0.007,4.5687 0.0183,1.7908 0.0512,3.5819 0.0257,5.3727 -0.13158,2.3919 -0.53552,4.7498 -1.55518,6.9416 -0.2658,0.5072 -0.50122,1.0315 -0.79741,1.5216 -0.59191,0.9794 -1.57445,2.2824 -2.3531,3.1027 -2.75317,2.9006 -6.35045,4.7536 -9.79267,6.6863 -0.84393,0.4115 -1.67198,0.8573 -2.5318,1.2345 -4.20169,1.8429 -8.73705,2.891 -13.32429,3.0154 -2.3165,-0.075 -5.92047,-0.219 -7.94722,-1.4492 -0.25431,-0.1544 -0.45469,-0.3838 -0.68203,-0.5757 -1.78513,-1.9739 -2.89832,-4.3973 -3.99091,-6.8021 -2.07521,-4.9592 -3.76804,-10.0682 -4.92741,-15.3236 -1.29576,-6.1756 -2.3404,-12.4355 -2.17798,-18.7707 0.22355,-5.6086 0.6305,-11.2155 1.27961,-16.7913 0.29725,-2.4782 0.64254,-4.9597 0.66224,-7.4599 0,0 4.65544,-2.3721 4.65544,-2.3721 z"
       inkscape:connector-curvature="0"
       inkscape:export-filename="G:\Dev\LudumDare38\LudumDare38\Assets\Art\upgrade.png"
       inkscape:export-xdpi="90"
       inkscape:export-ydpi="90" />
    <path
       style="color:#000000;clip-rule:nonzero;display:inline;overflow:visible;visibility:visible;opacity:1;isolation:auto;mix-blend-mode:normal;color-interpolation:sRGB;color-interpolation-filters:linearRGB;solid-color:#000000;solid-opacity:1;fill:#ff7f2a;fill-opacity:1;fill-rule:nonzero;stroke:#ffff00;stroke-width:1.30467534;stroke-linecap:butt;stroke-linejoin:miter;stroke-miterlimit:4;stroke-dasharray:none;stroke-dashoffset:0;stroke-opacity:1;color-rendering:auto;image-rendering:auto;shape-rendering:auto;text-rendering:auto;enable-background:accumulate"
       id="path4354"
       d="m -645.08777,1506.8189 c 0.0381,-1.8622 0.5605,-3.6797 1.39587,-5.3397 0.30212,-0.6004 0.66343,-1.1691 0.99514,-1.7537 1.08171,-1.4716 1.59314,-2.2867 2.91623,-3.5863 2.95051,-2.8982 6.87624,-4.9328 10.47274,-6.7755 0.84654,-0.4337 1.77034,-0.6963 2.65551,-1.0444 4.77551,-1.6793 9.78182,-2.4908 14.79413,-3.0516 2.18718,-0.2834 4.36739,-0.2395 6.42547,0.6229 0.34475,0.1445 0.67109,0.3294 1.00663,0.4942 2.51601,1.4775 3.60039,3.4959 4.75752,6.0782 1.20241,3.0672 1.7823,6.3111 2.14047,9.5707 0.12233,2.157 -0.0885,4.471 -1.30873,6.3279 -0.27551,0.4192 -0.62918,0.7816 -0.94377,1.1724 -3.1274,2.7657 -6.93361,4.6969 -10.96905,5.6865 -1.55497,0.3813 -2.18875,0.4425 -3.75297,0.6799 -3.1333,0.4001 -6.30364,0.4248 -9.42437,-0.1002 -0.71196,-0.1198 -1.41464,-0.2893 -2.12196,-0.434 -3.05102,-0.8122 -6.18357,-1.5923 -9.00244,-3.0619 -0.4233,-0.2207 -0.82564,-0.4794 -1.23845,-0.7192 -2.63506,-1.8007 -4.15941,-4.5456 -5.47242,-7.3689 -1.04615,-2.4447 -1.77777,-5.0045 -2.53886,-7.5472 0.0963,-1.5993 -0.28767,-0.2286 -0.18707,-0.2756 1.51758,-0.7091 2.89134,-1.7385 4.47292,-2.2903 0.23713,-0.083 -0.0617,0.4999 -0.0606,0.751 0.004,0.9171 0.16335,2.0188 0.26495,2.9026 0.88512,6.4034 2.00068,12.7713 2.92951,19.1684 0.66272,4.7319 1.2581,9.4772 1.59108,14.245 0.13297,1.7473 0.45148,3.4722 0.68153,5.2079 0.13168,1.2013 0.14098,2.4079 0.2462,3.6115 0.11145,1.2401 0.19655,2.4825 0.25299,3.7263 0.0338,0.7947 0.0393,1.5903 0.0416,2.3856 -0.009,0.7138 0.0244,1.4287 -0.0298,2.1409 -0.19677,1.1455 -0.26623,2.3055 -0.31516,3.465 -0.0458,1.227 -0.0676,2.4517 0.0548,3.6741 0.11537,0.8935 0.20714,1.789 0.25581,2.6886 0.0329,0.722 0.0338,1.4449 0.0349,2.1674 -4e-5,0.7051 -10e-4,1.4102 -0.002,2.1152 -0.0545,0.7914 0.0832,1.5683 0.1916,2.3483 0.0594,0.4953 0.0191,0.2627 0.11364,0.6988 0,0 -4.60062,2.4739 -4.60062,2.4739 l 0,0 c -0.1134,-0.4882 -0.0716,-0.2397 -0.12395,-0.7459 -0.10183,-0.7997 -0.27567,-1.5947 -0.23326,-2.4049 4.2e-4,-0.7048 10e-4,-1.4097 0.002,-2.1146 3.3e-4,-0.7168 0.002,-1.4338 -0.0174,-2.1505 -0.0313,-0.8956 -0.0967,-1.7892 -0.20739,-2.6788 -0.13614,-1.249 -0.10351,-2.4968 -0.0623,-3.7516 0.0345,-1.159 0.0772,-2.32 0.22879,-3.4708 0.11933,-0.6866 0.0292,-1.3908 0.0591,-2.0852 0.002,-0.7953 0.006,-1.5907 -0.005,-2.386 -0.0231,-1.2396 -0.0718,-2.4794 -0.20643,-3.7126 -0.12806,-1.1991 -0.16044,-2.3997 -0.24533,-3.6022 -0.17044,-1.7757 -0.48694,-3.5377 -0.532,-5.3236 -0.11888,-4.8322 -0.45819,-9.6573 -1.09983,-14.4502 -0.90886,-6.3514 -2.08738,-12.6555 -3.34316,-18.947 -0.20176,-1.0881 -0.35465,-1.8064 -0.48936,-2.8654 -0.0336,-0.2639 -0.27823,-0.6248 -0.0735,-0.7946 2.8994,-2.405 4.34642,-4.6943 4.90206,-2.1537 0.56692,2.5781 1.31686,5.1166 2.34196,7.5525 1.26669,2.7415 2.76915,5.3814 5.35436,7.0875 3.10104,1.8107 6.49984,2.9766 10.00509,3.7426 0.70627,0.1311 1.40825,0.2879 2.1188,0.3933 3.11511,0.462 6.27409,0.3678 9.3889,-0.038 1.90431,-0.3037 3.7819,-0.6347 5.60705,-1.2839 0.64206,-0.2284 2.34496,-1.2858 1.89064,-0.7779 -0.6651,0.7436 -1.6584,1.1278 -2.56871,1.5359 -0.50036,0.2244 0.88211,-0.6516 1.32316,-0.9774 0.32054,-0.3564 0.67836,-0.6826 0.9616,-1.0693 1.27302,-1.738 1.49852,-3.9722 1.42583,-6.055 -0.25278,-3.2263 -0.73402,-6.4521 -1.98614,-9.4614 -1.1321,-2.334 -2.33087,-4.443 -4.69236,-5.717 -0.32005,-0.1505 -0.63091,-0.3223 -0.96016,-0.4514 -1.97842,-0.7756 -4.09412,-0.7444 -6.17625,-0.5388 -4.93609,0.4657 -9.8511,1.2903 -14.52186,3.012 -0.88245,0.3667 -1.69336,1.0449 -2.64736,1.0999 -0.63132,0.036 2.08765,-1.4257 1.58742,-1.0388 -0.68192,0.5274 -1.44565,0.942 -2.13376,1.4613 -1.87438,1.4145 -3.46565,3.0908 -4.77759,5.0397 -0.31798,0.558 -0.66704,1.0993 -0.95393,1.6738 -0.76749,1.537 -1.29429,3.2927 -1.20794,5.0218 0,0 -4.65544,2.372 -4.65544,2.372 z"
       inkscape:connector-curvature="0"
       inkscape:export-filename="G:\Dev\LudumDare38\LudumDare38\Assets\Art\upgrade.png"
       inkscape:export-xdpi="90"
       inkscape:export-ydpi="90" />
    <path
       style="color:#000000;clip-rule:nonzero;display:inline;overflow:visible;visibility:visible;opacity:1;isolation:auto;mix-blend-mode:normal;color-interpolation:sRGB;color-interpolation-filters:linearRGB;solid-color:#000000;solid-opacity:1;fill:#ff7f2a;fill-opacity:1;fill-rule:nonzero;stroke:#ffff00;stroke-width:1.30467534;stroke-linecap:butt;stroke-linejoin:miter;stroke-miterlimit:4;stroke-dasharray:none;stroke-dashoffset:0;stroke-opacity:1;color-rendering:auto;image-rendering:auto;shape-rendering:auto;text-rendering:auto;enable-background:accumulate"
       id="path4356"
       d="m -561.38142,1498.3173 c -3.6452,-0.036 -7.2394,0.9408 -10.75679,1.7878 -3.87258,1.0136 -7.69272,2.2467 -11.36511,3.8488 -1.26225,0.5507 -2.49191,1.1734 -3.73064,1.7751 -0.0861,0.042 0.34668,-0.153 0.27098,-0.095 -1.04027,0.8039 -2.11705,1.5594 -3.17558,2.3392 -0.9917,0.9658 -2.06286,1.8563 -2.97511,2.8975 -3.04726,3.4781 -5.09078,7.5899 -6.50481,11.9642 -1.20241,3.7198 -1.33029,5.2771 -1.98911,9.109 -0.69687,5.7083 -0.31211,11.4718 0.72266,17.1131 0.49729,2.7111 0.89121,4.0543 1.56858,6.6767 0.94108,3.1288 1.99871,6.2528 3.49782,9.1662 0.69188,1.3445 0.95143,1.6544 1.7819,2.8883 0.3745,0.3988 0.71397,0.8337 1.1235,1.1964 2.84373,2.5187 6.81907,3.0643 10.42507,3.6213 4.98009,0.5119 9.98081,-0.3983 14.64822,-2.1431 0.90652,-0.3389 1.78624,-0.7456 2.67936,-1.1184 0.80643,-0.4349 1.66698,-0.7818 2.41927,-1.3048 0.57507,-0.3999 -1.8419,1.6313 -1.8831,0.9321 -0.0462,-0.7845 1.25742,-0.945 1.85207,-1.4587 0.9251,-0.7993 2.2274,-2.118 3.01608,-3.0744 0.43032,-0.5219 0.80789,-1.085 1.21183,-1.6276 1.78241,-2.6664 2.86577,-5.6975 3.56817,-8.8068 0.44552,-1.9569 0.46192,-3.7644 -0.0399,-5.6984 -0.8226,-2.4202 -2.54275,-4.397 -4.29203,-6.2071 -1.6989,-1.7262 -3.58898,-3.2432 -5.62191,-4.5549 -0.76641,-0.5072 -1.60479,-0.6953 -2.5055,-0.729 -0.65919,-0.086 -1.25519,0.09 -1.88576,0.2309 -0.412,0.1217 -0.8551,0.061 -1.27157,0.134 -0.1904,0.033 -0.36928,0.1146 -0.55517,0.1676 -0.66644,0.1967 -1.32217,0.4337 -2.00216,0.5947 -0.87688,0.1764 -1.74515,0.3793 -2.63064,0.5166 0,0 4.14256,-3.1146 4.14256,-3.1146 l 0,0 c 0.87801,-0.1542 1.74586,-0.3548 2.61147,-0.5675 0.67867,-0.2063 1.34776,-0.4457 2.03842,-0.6086 0.6058,-0.1286 1.23315,-0.1256 1.83352,-0.291 0.64965,-0.1435 1.30394,-0.162 1.96714,-0.097 0.94574,0.1129 1.80637,0.4312 2.577,1.0073 1.95986,1.4345 3.80433,3.0159 5.5183,4.7385 1.8086,1.8754 3.65506,3.8547 4.54642,6.3506 0.60388,2.1161 0.55467,3.8009 0.0809,5.9566 -0.74556,3.1883 -1.85643,6.2979 -3.64676,9.0615 -0.40061,0.5593 -0.77055,1.1419 -1.20183,1.678 -3.53682,4.396 -8.48633,7.1858 -13.48858,9.6401 -0.88647,0.3534 -1.76034,0.7403 -2.65943,1.0603 -3.90767,1.3909 -8.10222,2.2736 -12.26625,2.242 -0.87576,-0.01 -1.74669,-0.1307 -2.62004,-0.196 -3.14966,-0.5118 -6.47636,-0.9979 -9.26846,-2.6652 -1.35485,-0.809 -1.62736,-1.259 -2.66299,-2.3808 -0.30745,-0.4719 -0.63811,-0.9294 -0.92235,-1.4156 -1.97674,-3.381 -3.00743,-7.2419 -4.11277,-10.963 -0.66139,-2.8227 -0.95214,-3.8684 -1.43958,-6.7924 -0.95238,-5.713 -1.35302,-11.5373 -0.64744,-17.3046 0.26011,-1.5398 0.44923,-3.0932 0.78033,-4.6193 0.57793,-2.6637 1.76041,-6.6544 2.85155,-9.1463 1.75303,-4.0035 4.30108,-7.5286 7.55464,-10.4387 1.05772,-0.7963 2.05449,-1.6807 3.17316,-2.3888 2.3473,-1.4859 4.76573,-2.8597 7.20851,-4.1827 1.20982,-0.6552 2.47535,-1.2043 3.73974,-1.7468 3.74653,-1.6075 7.63799,-2.8498 11.56536,-3.9278 3.7336,-0.9342 7.51356,-1.9781 11.38182,-2.1067 0,0 -4.23498,3.0769 -4.23498,3.0769 z"
       inkscape:connector-curvature="0"
       inkscape:export-filename="G:\Dev\LudumDare38\LudumDare38\Assets\Art\upgrade.png"
       inkscape:export-xdpi="90"
       inkscape:export-ydpi="90" />
    <path
       style="color:#000000;clip-rule:nonzero;display:inline;overflow:visible;visibility:visible;opacity:1;isolation:auto;mix-blend-mode:normal;color-interpolation:sRGB;color-interpolation-filters:linearRGB;solid-color:#000000;solid-opacity:1;fill:#ff7f2a;fill-opacity:1;fill-rule:nonzero;stroke:#ffff00;stroke-width:1.30467534;stroke-linecap:butt;stroke-linejoin:miter;stroke-miterlimit:4;stroke-dasharray:none;stroke-dashoffset:0;stroke-opacity:1;color-rendering:auto;image-rendering:auto;shape-rendering:auto;text-rendering:auto;enable-background:accumulate"
       id="path4358"
       d="m -531.93164,1559.5582 c -0.25823,0.8661 -0.58642,1.7226 -0.74671,2.6142 0.002,0.086 -0.005,0.1727 0.006,0.258 0.0541,0.4229 0.16318,-0.146 0.0873,-0.1076 -4.04806,2.0508 -5.55576,3.7463 -4.25204,2.3109 0.47802,-0.6451 0.49985,-1.5523 0.56605,-2.322 0.10162,-1.1815 0.0785,-1.2447 0.0947,-2.4831 -0.25171,-6.0921 -1.3102,-12.1193 -2.18677,-18.1441 -1.15663,-8.6387 -2.0522,-17.3102 -2.74416,-25.9979 -0.39923,-5.1785 -0.73403,-10.3626 -0.9548,-15.5519 -0.0689,-1.9611 -0.10182,-3.9233 -0.11422,-5.8855 -0.0442,-2.9775 -0.003,-2.7661 5.10453,-4.2242 0.51039,-0.1458 0.94074,0.4918 1.41059,0.7388 0.72159,0.3792 1.44249,0.7598 2.16374,1.1397 7.10066,3.5868 14.46305,6.6171 21.76487,9.763 3.26417,1.6608 6.99562,2.6565 9.93225,4.9281 0.32067,0.248 0.60397,0.5409 0.90596,0.8114 1.43823,1.5181 2.04343,3.4917 2.39304,5.5038 0.21067,1.53 0.27144,3.0705 0.0128,4.5946 -0.8221,2.8516 -2.73785,5.3199 -4.88523,7.3242 -0.64338,0.6006 -1.34859,1.1312 -2.02289,1.6968 -4.00599,2.8822 -8.38939,5.2905 -13.10893,6.7589 -1.58133,0.492 -2.08285,0.5748 -3.63857,0.9249 -2.0508,0.4447 -4.14314,0.5426 -6.23348,0.5541 -1.19301,-0.01 -2.38593,-0.029 -3.57897,-0.036 -0.83236,0.01 -1.64858,0.039 -2.46412,-0.1356 -0.0802,-0.024 -0.31255,-0.028 -0.24075,-0.071 1.55466,-0.929 3.06035,-1.9905 4.75578,-2.6273 0.31268,-0.1174 0.56553,0.3561 0.85707,0.5191 1.76002,0.9839 3.56954,1.8904 5.35664,2.8234 3.19396,1.7791 6.3788,3.5916 9.43406,5.6026 0.95091,0.6101 1.95691,1.2537 2.56882,2.2296 0.42745,0.6195 0.58676,1.381 0.73693,2.1066 0.26496,1.1925 0.40792,2.4064 0.61043,3.6103 0.13571,0.8673 0.25489,1.7489 0.56575,2.5746 0.14566,0.514 0.50167,0.8068 0.88474,1.1316 0.39363,0.3984 0.50805,0.9627 0.7996,1.4266 0.22319,0.4623 0.50437,0.8815 0.79663,1.3009 0.41483,0.5914 0.9916,1.0381 1.48117,1.5629 0.68943,0.6238 1.12658,1.4407 1.67998,2.1701 0.39909,0.5989 0.76955,1.2121 1.12721,1.8364 0.36931,0.5584 0.69962,1.1382 1.03093,1.7196 0.0468,0.1 0.0935,0.2 0.14029,0.3001 0,0 -4.55519,2.5729 -4.55519,2.5729 l 0,0 c -0.0391,-0.088 -0.0782,-0.1752 -0.11729,-0.2628 -0.3255,-0.5852 -0.65239,-1.1662 -1.0336,-1.7174 -0.33938,-0.6105 -0.68212,-1.2158 -1.07517,-1.7943 -0.51958,-0.7273 -0.95154,-1.5152 -1.63667,-2.1125 -0.53274,-0.5239 -1.11171,-1.0111 -1.56022,-1.6128 -0.30134,-0.4262 -0.57899,-0.8613 -0.81237,-1.3288 -0.25366,-0.4207 -0.37385,-0.9207 -0.71287,-1.28 -0.45505,-0.3731 -0.82077,-0.8043 -1.00787,-1.3746 -0.31839,-0.8641 -0.42868,-1.7861 -0.55285,-2.6939 -0.20002,-1.1944 -0.32793,-2.4028 -0.63134,-3.5772 -0.13778,-0.6676 -0.3075,-1.3546 -0.68137,-1.9327 -0.53477,-0.9127 -1.4627,-1.5279 -2.29035,-2.1472 -2.91488,-2.1141 -5.99913,-4.0009 -9.17571,-5.6938 -2.11062,-1.0651 -1.94382,-1.0053 -4.05016,-1.9749 -0.5165,-0.2378 -1.04062,-0.4588 -1.55661,-0.6977 -0.33209,-0.1538 -1.2181,-0.1961 -0.98732,-0.4801 2.82633,-3.4782 2.35223,-3.5377 4.13832,-3.1035 0.7851,0.1235 1.58253,0.055 2.37427,0.088 1.17848,0.018 2.35672,0.049 3.53531,0.06 2.00789,0.01 4.01761,-0.1006 5.98957,-0.5094 1.91819,-0.4247 3.79274,-0.9078 5.62894,-1.6229 0.77043,-0.3001 1.46821,-1.1392 2.27923,-0.9785 0.64548,0.1279 -2.19566,1.4507 -1.63507,1.1061 0.75099,-0.4616 1.47111,-0.9716 2.20666,-1.4574 0.66434,-0.5422 1.35958,-1.0486 1.99304,-1.6266 2.05493,-1.8749 3.88761,-4.2163 4.67661,-6.9129 0.28658,-1.4689 0.22305,-2.9586 0.0712,-4.4436 -0.27743,-1.9232 -0.79312,-3.7892 -2.15734,-5.2468 -0.27772,-0.2606 -0.53903,-0.5399 -0.83315,-0.7818 -2.73778,-2.2517 -6.33676,-3.5059 -9.4312,-5.1436 -7.28036,-3.3317 -14.65987,-6.4347 -22.00552,-9.6186 -0.77548,-0.3345 -1.53901,-0.6982 -2.32644,-1.0035 -0.48912,-0.1896 -1.809,-0.056 -1.49891,-0.4796 0.91865,-1.2535 2.54317,-1.7869 3.81475,-2.6803 -0.0413,0.1247 -0.10525,0.2442 -0.12377,0.3743 -0.0563,0.3954 0.042,0.8031 -0.0203,1.198 -0.0282,1.9896 -0.0719,3.9791 -0.0754,5.9691 -0.0183,5.2643 0.0985,10.5293 0.44829,15.7832 0.63516,8.688 1.34631,17.3818 2.67294,25.9962 1.00451,5.9518 2.19875,11.8852 2.82334,17.8922 0.0391,1.6642 0.11381,3.3907 -0.2779,5.02 -1.17644,1.5636 -5.05077,4.7705 -5.35119,1.89 0.11584,-0.9213 0.50294,-1.7724 0.68059,-2.6824 0,0 4.7442,-2.228 4.7442,-2.228 z"
       inkscape:connector-curvature="0"
       inkscape:export-filename="G:\Dev\LudumDare38\LudumDare38\Assets\Art\upgrade.png"
       inkscape:export-xdpi="90"
       inkscape:export-ydpi="90" />
    <path
       style="color:#000000;clip-rule:nonzero;display:inline;overflow:visible;visibility:visible;opacity:1;isolation:auto;mix-blend-mode:normal;color-interpolation:sRGB;color-interpolation-filters:linearRGB;solid-color:#000000;solid-opacity:1;fill:#ff7f2a;fill-opacity:1;fill-rule:nonzero;stroke:#ffff00;stroke-width:1.30467534;stroke-linecap:butt;stroke-linejoin:miter;stroke-miterlimit:4;stroke-dasharray:none;stroke-dashoffset:0;stroke-opacity:1;color-rendering:auto;image-rendering:auto;shape-rendering:auto;text-rendering:auto;enable-background:accumulate"
       id="path4360"
       d="m -487.40732,1567.6746 c 0.1731,-3.0392 0.16439,-6.0859 0.17429,-9.1291 0.0353,-3.2696 -0.0329,-6.5493 0.39227,-9.8 0.28194,-2.1556 0.63443,-3.6456 1.07759,-5.7718 0.8991,-3.6451 1.88951,-7.276 3.12715,-10.8227 0.54952,-1.5748 1.15288,-3.0839 1.75788,-4.637 1.58802,-3.7493 3.30661,-7.4613 5.47729,-10.912 1.34415,-2.0561 2.89332,-3.9697 4.6712,-5.6647 2.09498,-1.5811 4.55482,-3.8604 7.25456,-3.6404 1.24122,0.2573 2.22601,0.5409 3.25946,1.2999 1.61383,1.628 2.74209,3.6464 3.87261,5.6201 1.55167,2.5962 2.75831,5.3565 3.76063,8.2036 1.34797,4.7343 2.35356,9.5564 3.24404,14.3948 0.6923,3.9073 1.1913,7.8422 1.71975,11.7732 0.28171,2.1169 0.67511,4.2159 0.9917,6.3274 0.18428,1.1751 0.24997,2.3628 0.27943,3.5504 0.002,1.0703 -2.6e-4,2.1407 0.004,3.2111 -0.006,0.9101 0.002,1.8202 0.006,2.7304 0.003,0.7309 0.004,1.4619 0.005,2.1928 -6e-5,0.7774 -0.007,1.5547 -0.005,2.3321 -8.6e-4,0.6026 0.29661,1.1194 0.47741,1.6767 0.0324,0.074 0.0648,0.1473 0.0971,0.2209 0,0 -4.56602,2.5719 -4.56602,2.5719 l 0,0 c -0.0408,-0.092 -0.0817,-0.1831 -0.12255,-0.2746 -0.1847,-0.6115 -0.51834,-1.1728 -0.52749,-1.8299 10e-4,-0.7756 -0.005,-1.5511 -0.005,-2.3267 4.3e-4,-0.7327 10e-4,-1.4653 0.005,-2.198 0.005,-0.9137 0.0143,-1.8275 0.0131,-2.7412 0.009,-1.0675 0.0173,-2.1352 10e-4,-3.2027 -0.01,-1.1801 -0.0464,-2.3609 -0.18091,-3.5344 -0.24853,-2.1368 -0.6367,-4.2534 -0.89212,-6.3895 -0.38453,-3.973 -0.73129,-7.9507 -1.43996,-11.8843 -0.88424,-4.799 -1.89114,-9.5774 -3.37992,-14.2312 -1.037,-2.7972 -2.29878,-5.5007 -3.80515,-8.0786 -1.10447,-1.9043 -2.22886,-3.8648 -3.89603,-5.3396 -0.94769,-0.5957 -2.00093,-0.9495 -3.12529,-1.0164 -0.39426,0.036 -0.42726,0.018 -0.81293,0.1403 -0.13248,0.042 -0.50769,0.2229 -0.38889,0.1507 7.33646,-4.4581 4.42511,-2.665 2.88147,-1.6387 -1.88818,1.6321 -3.48098,3.5613 -4.89091,5.617 -2.28043,3.4136 -4.05284,7.1367 -5.68113,10.8983 -0.51457,1.2877 -1.34767,3.343 -1.81608,4.637 -1.27862,3.5323 -2.30196,7.1565 -3.20654,10.8003 -0.48372,2.2878 -0.76633,3.3812 -1.053,5.6993 -0.39785,3.2171 -0.29795,6.4551 -0.26415,9.6873 0.01,2.9839 -0.002,5.9718 0.17429,8.9515 0,0 -4.66417,2.3765 -4.66417,2.3765 z"
       inkscape:connector-curvature="0"
       inkscape:export-filename="G:\Dev\LudumDare38\LudumDare38\Assets\Art\upgrade.png"
       inkscape:export-xdpi="90"
       inkscape:export-ydpi="90" />
    <path
       style="color:#000000;clip-rule:nonzero;display:inline;overflow:visible;visibility:visible;opacity:1;isolation:auto;mix-blend-mode:normal;color-interpolation:sRGB;color-interpolation-filters:linearRGB;solid-color:#000000;solid-opacity:1;fill:#ff7f2a;fill-opacity:1;fill-rule:nonzero;stroke:#ffff00;stroke-width:1.30467534;stroke-linecap:butt;stroke-linejoin:miter;stroke-miterlimit:4;stroke-dasharray:none;stroke-dashoffset:0;stroke-opacity:1;color-rendering:auto;image-rendering:auto;shape-rendering:auto;text-rendering:auto;enable-background:accumulate"
       id="path4362"
       d="m -480.46374,1541.9152 c 5.78406,0.1144 11.55734,0.4737 17.33367,0.7771 10.95278,0.6457 21.92361,0.8395 32.88878,1.1548 2.12118,0.043 4.24348,0.1079 6.35985,0.2636 0.48654,0.036 1.11629,0.024 1.57482,0.2499 1.19571,2.2232 -3.20049,3.0923 -5.2318,3.1003 0,0 4.21544,-3.084 4.21544,-3.084 l 0,0 c 0.11527,-0.01 0.23086,-0.01 0.3458,-0.021 0.0979,-0.01 0.37633,-0.092 0.29215,-0.041 -4.44898,2.6874 -5.36508,1.1435 -4.01661,2.9524 -0.35634,-0.1478 -0.89224,-0.2139 -1.23944,-0.2647 -1.96673,-0.2876 -3.95309,-0.4142 -5.93514,-0.539 -10.81379,-0.6757 -21.6408,-1.1282 -32.47062,-1.4521 -6.11062,-0.1449 -12.22593,-0.2868 -18.33602,-0.03 0,0 4.21912,-3.0654 4.21912,-3.0654 z"
       inkscape:connector-curvature="0"
       inkscape:export-filename="G:\Dev\LudumDare38\LudumDare38\Assets\Art\upgrade.png"
       inkscape:export-xdpi="90"
       inkscape:export-ydpi="90" />
    <path
       style="color:#000000;clip-rule:nonzero;display:inline;overflow:visible;visibility:visible;opacity:1;isolation:auto;mix-blend-mode:normal;color-interpolation:sRGB;color-interpolation-filters:linearRGB;solid-color:#000000;solid-opacity:1;fill:#ff7f2a;fill-opacity:1;fill-rule:nonzero;stroke:#ffff00;stroke-width:1.30467534;stroke-linecap:butt;stroke-linejoin:miter;stroke-miterlimit:4;stroke-dasharray:none;stroke-dashoffset:0;stroke-opacity:1;color-rendering:auto;image-rendering:auto;shape-rendering:auto;text-rendering:auto;enable-background:accumulate"
       id="path4364"
       d="m -423.35491,1511.8855 c -0.16303,3.058 -0.0822,6.1218 -0.0425,9.1819 0.18532,5.5891 0.26298,11.1815 0.46963,16.7698 0.0592,6.1627 0.609,12.3001 1.28828,18.4205 0.57031,4.2474 0.98804,8.5185 1.6991,12.7458 0.24934,1.5282 0.5513,3.0432 0.90396,4.5501 0.10801,0.5913 0.27211,1.1844 0.66224,1.6533 0.0719,-0.07 0.1245,-0.1676 0.21568,-0.2089 0.36533,-0.1652 0.75405,-0.273 1.13387,-0.4014 0.77726,-0.2628 1.55844,-0.5138 2.33718,-0.7721 1.15192,-0.3821 2.30509,-0.7605 3.4548,-1.1492 4.86144,-1.6437 3.16575,-1.0463 7.99963,-2.9356 5.69855,-2.5702 1.98714,-0.8177 7.3363,-3.5275 0.25043,-0.1269 -0.97099,0.5613 -0.741,0.4003 0.87824,-0.6147 1.80735,-1.1543 2.68913,-1.7639 1.91605,-1.3248 2.6102,-1.9276 4.3856,-3.3476 2.09521,-1.8266 4.14249,-3.7658 5.62307,-6.1424 0.84393,-1.3547 0.90273,-1.6663 1.50383,-3.1237 0.72643,-2.2108 1.25585,-4.4685 1.02398,-6.8014 -0.0843,-0.3462 -0.13982,-0.7007 -0.25286,-1.0387 -0.93671,-2.8002 -3.00427,-5.4809 -4.73089,-7.8327 -2.92453,-3.8087 -6.16166,-7.4064 -9.71115,-10.646 -0.82854,-0.7563 -1.69309,-1.472 -2.53964,-2.208 -4.66379,-3.9184 -9.95538,-6.9532 -15.51225,-9.4007 -1.69605,-0.7103 -3.441,-1.3068 -5.26798,-1.5466 0,0 4.22614,-2.9609 4.22614,-2.9609 l 0,0 c 1.76241,0.3816 3.42879,1.0742 5.0507,1.8547 5.42738,2.6922 10.63143,5.8306 15.33947,9.6633 0.86195,0.7353 1.74221,1.4497 2.58585,2.206 3.6067,3.2333 6.89511,6.8354 9.93017,10.6039 1.77876,2.3172 3.98922,5.1158 5.06512,7.8566 0.13815,0.3519 0.21666,0.7245 0.32499,1.0867 0.0414,0.3171 0.10893,0.6319 0.12415,0.9514 0.0955,2.0052 -0.67304,4.258 -1.20671,6.1554 -0.58697,1.5023 -0.6446,1.8356 -1.4874,3.2338 -1.48587,2.465 -3.58793,4.4584 -5.73352,6.3419 -1.80238,1.4382 -2.56694,2.094 -4.50261,3.4395 -5.27637,3.6679 -10.99736,6.6939 -16.90616,9.2024 -1.34688,0.5225 -2.68576,1.0661 -4.04062,1.5675 -2.56727,0.95 -5.164,1.8187 -7.73793,2.7506 -0.85993,0.3113 -1.71107,0.6472 -2.5761,0.9441 -0.46113,0.1582 -0.91685,0.3615 -1.40078,0.4206 -0.17912,0.022 -0.33853,-0.1251 -0.50779,-0.1876 -0.40984,-0.5563 -0.6468,-1.1961 -0.73051,-1.8837 -0.30137,-1.5501 -0.54114,-3.1059 -0.73792,-4.6736 -0.57797,-4.3022 -0.73632,-8.6529 -1.3489,-12.9529 -0.64194,-6.1213 -1.26911,-12.2517 -1.38414,-18.4103 -0.14771,-5.5774 -0.22735,-11.1569 -0.55744,-16.728 -0.11548,-2.9968 -0.27096,-5.9915 -0.36275,-8.989 0,0 4.64672,-2.3677 4.64672,-2.3677 z"
       inkscape:connector-curvature="0"
       inkscape:export-filename="G:\Dev\LudumDare38\LudumDare38\Assets\Art\upgrade.png"
       inkscape:export-xdpi="90"
       inkscape:export-ydpi="90" />
    <path
       style="color:#000000;clip-rule:nonzero;display:inline;overflow:visible;visibility:visible;opacity:1;isolation:auto;mix-blend-mode:normal;color-interpolation:sRGB;color-interpolation-filters:linearRGB;solid-color:#000000;solid-opacity:1;fill:#ff7f2a;fill-opacity:1;fill-rule:nonzero;stroke:#ffff00;stroke-width:1.30467534;stroke-linecap:butt;stroke-linejoin:miter;stroke-miterlimit:4;stroke-dasharray:none;stroke-dashoffset:0;stroke-opacity:1;color-rendering:auto;image-rendering:auto;shape-rendering:auto;text-rendering:auto;enable-background:accumulate"
       id="path4366"
       d="m -375.26729,1511.1339 c 0.0525,2.1482 0.26655,4.2891 0.38348,6.4349 0.16131,3.2554 0.13558,6.5155 0.215,9.7731 0.0838,4.6805 0.24744,9.3594 0.43869,14.0368 0.26162,7.0161 0.99546,14.0003 1.93309,20.9547 0.45938,3.7107 1.05656,7.4007 1.88068,11.0475 0.21542,0.9486 0.50034,1.8578 0.99597,2.6947 0.22727,0.4837 0.32675,0.9289 0.87139,1.0991 0.0818,0.015 0.16228,0.043 0.24537,0.044 0.50165,0 1.84059,-0.4766 2.19024,-0.5708 1.24734,-0.3362 2.70516,-0.6954 3.94346,-1.0062 4.16099,-1.0726 8.33712,-2.1029 12.58373,-2.7727 2.11181,-0.3146 4.24532,-0.494 6.33414,-0.9429 0.15151,-0.058 0.31091,-0.098 0.45454,-0.1725 0.11289,-0.059 0.41947,-0.2878 0.3081,-0.226 -4.24901,2.3573 -5.10798,3.7422 -4.02524,2.1116 0,0 4.7357,-2.1822 4.7357,-2.1822 l 0,0 c -0.57145,2.2414 -3.48386,3.0059 -5.58948,3.5811 -2.03575,0.3446 -4.10207,0.4773 -6.14451,0.7781 -4.19946,0.6523 -8.34559,1.6142 -12.44549,2.7287 -2.29104,0.621 -1.98348,0.5242 -4.10251,1.1455 -0.90016,0.2639 -1.92305,0.7777 -2.86039,0.3772 -0.55816,-0.328 -0.80659,-0.7857 -1.02896,-1.3787 -0.50313,-0.9087 -0.77862,-1.8907 -0.95117,-2.9152 -0.58671,-3.7622 -1.01425,-7.5445 -1.41142,-11.3312 -0.78864,-6.9615 -1.54666,-13.9286 -2.08876,-20.9144 -0.22895,-4.6485 -0.42786,-9.2983 -0.62721,-13.9482 -0.11277,-3.2414 -0.0732,-6.4875 -0.27247,-9.7263 -0.14165,-2.1226 -0.34657,-4.2379 -0.62141,-6.3474 0,0 4.65544,-2.3721 4.65544,-2.3721 z"
       inkscape:connector-curvature="0"
       inkscape:export-filename="G:\Dev\LudumDare38\LudumDare38\Assets\Art\upgrade.png"
       inkscape:export-xdpi="90"
       inkscape:export-ydpi="90" />
    <path
       style="color:#000000;clip-rule:nonzero;display:inline;overflow:visible;visibility:visible;opacity:1;isolation:auto;mix-blend-mode:normal;color-interpolation:sRGB;color-interpolation-filters:linearRGB;solid-color:#000000;solid-opacity:1;fill:#ff7f2a;fill-opacity:1;fill-rule:nonzero;stroke:#ffff00;stroke-width:1.30467534;stroke-linecap:butt;stroke-linejoin:miter;stroke-miterlimit:4;stroke-dasharray:none;stroke-dashoffset:0;stroke-opacity:1;color-rendering:auto;image-rendering:auto;shape-rendering:auto;text-rendering:auto;enable-background:accumulate"
       id="path4368"
       d="m -372.0639,1543.5975 c 3.3067,-0.2039 6.61312,-0.4329 9.91524,-0.711 3.80664,-0.3652 7.61584,-0.6941 11.3697,-1.4404 0.75862,-0.1172 1.49077,-0.3461 2.22535,-0.5604 0,0 -4.09569,3.145 -4.09569,3.145 l 0,0 c -0.71113,0.1785 -1.42469,0.3487 -2.15205,0.4497 -3.69027,0.604 -7.42473,0.8089 -11.13985,1.2126 -3.44093,0.3146 -6.89455,0.5433 -10.31347,1.0563 0,0 4.19077,-3.1518 4.19077,-3.1518 z"
       inkscape:connector-curvature="0"
       inkscape:export-filename="G:\Dev\LudumDare38\LudumDare38\Assets\Art\upgrade.png"
       inkscape:export-xdpi="90"
       inkscape:export-ydpi="90" />
    <path
       style="color:#000000;clip-rule:nonzero;display:inline;overflow:visible;visibility:visible;opacity:1;isolation:auto;mix-blend-mode:normal;color-interpolation:sRGB;color-interpolation-filters:linearRGB;solid-color:#000000;solid-opacity:1;fill:#ff7f2a;fill-opacity:1;fill-rule:nonzero;stroke:#ffff00;stroke-width:1.30467534;stroke-linecap:butt;stroke-linejoin:miter;stroke-miterlimit:4;stroke-dasharray:none;stroke-dashoffset:0;stroke-opacity:1;color-rendering:auto;image-rendering:auto;shape-rendering:auto;text-rendering:auto;enable-background:accumulate"
       id="path4370"
       d="m -372.74494,1511.8545 c 3.77753,0.2922 7.5381,0.7806 11.31303,1.1208 4.64991,0.3703 9.3124,0.523 13.96934,0.7743 0,0 -3.94629,2.8255 -3.94629,2.8255 l 0,0 c -4.55953,-0.391 -9.1273,-0.6578 -13.69215,-0.9786 -3.95547,-0.2776 -7.91843,-0.7034 -11.88683,-0.6593 0,0 4.2429,-3.0827 4.2429,-3.0827 z"
       inkscape:connector-curvature="0"
       inkscape:export-filename="G:\Dev\LudumDare38\LudumDare38\Assets\Art\upgrade.png"
       inkscape:export-xdpi="90"
       inkscape:export-ydpi="90" />
    <path
       style="fill:#c4c8b7;fill-rule:evenodd;stroke:#000000;stroke-width:10;stroke-linecap:butt;stroke-linejoin:miter;stroke-opacity:1;stroke-miterlimit:4;stroke-dasharray:none"
       d="m -2121.3203,2274.2427 53.7401,-271.529 333.7544,-141.4214 1182.28253,0 234.75944,130.1077 62.2254,260.2153 0,444.063 -181.01934,169.7056 -718.42043,65.0539 -560.0286,-76.3676 -370.5239,-192.333 z"
       id="path4376"
       inkscape:connector-curvature="0"
       inkscape:export-filename="G:\Dev\LudumDare38\LudumDare38\Assets\Art\upgradeMenu.png"
       inkscape:export-xdpi="90"
       inkscape:export-ydpi="90" />
    <rect
       style="color:#000000;clip-rule:nonzero;display:inline;overflow:visible;visibility:visible;opacity:1;isolation:auto;mix-blend-mode:normal;color-interpolation:sRGB;color-interpolation-filters:linearRGB;solid-color:#000000;solid-opacity:1;fill:#ff5555;fill-opacity:1;fill-rule:nonzero;stroke:#000000;stroke-width:10;stroke-linecap:butt;stroke-linejoin:miter;stroke-miterlimit:4;stroke-dasharray:none;stroke-dashoffset:0;stroke-opacity:1;color-rendering:auto;image-rendering:auto;shape-rendering:auto;text-rendering:auto;enable-background:accumulate"
       id="rect4378"
       width="132.93607"
       height="127.27922"
       x="-1566.9486"
       y="1564.3075"
       inkscape:export-filename="G:\Dev\LudumDare38\LudumDare38\Assets\Art\closeMenu.png"
       inkscape:export-xdpi="90"
       inkscape:export-ydpi="90" />
    <path
       style="fill:none;fill-rule:evenodd;stroke:#000000;stroke-width:5;stroke-linecap:butt;stroke-linejoin:miter;stroke-opacity:1;stroke-miterlimit:4;stroke-dasharray:none"
       d="m -1535.8359,1592.5918 67.8823,65.0538"
       id="path4380"
       inkscape:connector-curvature="0"
       inkscape:export-filename="G:\Dev\LudumDare38\LudumDare38\Assets\Art\closeMenu.png"
       inkscape:export-xdpi="90"
       inkscape:export-ydpi="90" />
    <path
       style="fill:none;fill-rule:evenodd;stroke:#000000;stroke-width:5;stroke-linecap:butt;stroke-linejoin:miter;stroke-opacity:1;stroke-miterlimit:4;stroke-dasharray:none"
       d="m -1467.9536,1595.4202 -65.0539,53.7401"
       id="path4382"
       inkscape:connector-curvature="0"
       inkscape:export-filename="G:\Dev\LudumDare38\LudumDare38\Assets\Art\closeMenu.png"
       inkscape:export-xdpi="90"
       inkscape:export-ydpi="90" />
    <rect
       style="color:#000000;clip-rule:nonzero;display:inline;overflow:visible;visibility:visible;opacity:1;isolation:auto;mix-blend-mode:normal;color-interpolation:sRGB;color-interpolation-filters:linearRGB;solid-color:#000000;solid-opacity:1;fill:#225500;fill-opacity:1;fill-rule:nonzero;stroke:#782121;stroke-width:1.1818881;stroke-linecap:butt;stroke-linejoin:miter;stroke-miterlimit:4;stroke-dasharray:none;stroke-dashoffset:0;stroke-opacity:1;color-rendering:auto;image-rendering:auto;shape-rendering:auto;text-rendering:auto;enable-background:accumulate"
       id="rect4372-2"
       width="347.31219"
       height="157.10049"
       x="-1289.4706"
       y="1603.137"
       inkscape:export-filename="G:\Dev\LudumDare38\LudumDare38\Assets\Art\upgrade.png"
       inkscape:export-xdpi="90"
       inkscape:export-ydpi="90" />
    <path
       style="color:#000000;clip-rule:nonzero;display:inline;overflow:visible;visibility:visible;opacity:1;isolation:auto;mix-blend-mode:normal;color-interpolation:sRGB;color-interpolation-filters:linearRGB;solid-color:#000000;solid-opacity:1;fill:#ff7f2a;fill-opacity:1;fill-rule:nonzero;stroke:#ffff00;stroke-width:1.30467534;stroke-linecap:butt;stroke-linejoin:miter;stroke-miterlimit:4;stroke-dasharray:none;stroke-dashoffset:0;stroke-opacity:1;color-rendering:auto;image-rendering:auto;shape-rendering:auto;text-rendering:auto;enable-background:accumulate"
       id="path4401"
       d="m -1227.7775,1641.0435 c 0.5926,4.4897 1.0935,8.9853 1.4388,13.5018 0.2801,5.8874 0.5769,11.7748 0.8003,17.6651 0.1116,5.8506 0.4266,11.6939 0.7471,17.536 0.076,3.9433 0.4803,7.8637 0.8024,11.7908 0.185,2.2122 0.333,4.4278 0.3668,6.6478 0.1855,2.0388 0.4219,4.0704 0.5637,6.1131 0.2498,1.5409 -0.1497,3.2157 0.3874,4.7006 0.088,0.1342 0.1339,0.31 0.2653,0.4026 0.7669,0.5408 2.5665,0.585 3.3845,0.6678 2.3474,0.2377 2.3932,0.1778 4.8899,0.2046 8.9701,-0.3727 18.0091,-1.2618 26.7706,-3.3018 1.676,-0.3903 3.3183,-0.9134 4.9775,-1.37 -3.0101,2.2775 9.6945,-4.3194 7.2715,-3.2381 -2.0543,0.9168 -3.8664,2.432 -6.0406,3.0096 -0.8273,0.2197 1.2193,-1.2067 1.7578,-1.872 1.2063,-1.4904 1.3317,-2.0181 2.116,-3.7035 1.1069,-2.9059 1.1979,-6.0064 1.1571,-9.0742 0.059,-3.2587 -0.1801,-4.3056 -2.1069,-7.02 -5.9874,-6.2478 -14.6793,-8.2074 -22.7905,-10.1394 -10.0862,-1.9908 -20.3533,-2.8105 -30.6141,-3.1455 -2.0642,-0.042 -4.1298,-0.071 -6.1944,-0.031 -0.3634,0.01 -0.727,0.014 -1.0899,0.036 -0.1601,0.01 -0.6059,0.1539 -0.4779,0.057 2.8844,-2.1808 5.865,-4.2315 8.7975,-6.3472 7.6696,-1.1136 15.2601,-2.7516 22.751,-4.7269 3.4883,-1.0002 7.0093,-1.9654 10.3478,-3.4112 0.7092,-0.3071 2.7464,-1.415 2.0823,-1.0196 -9.0745,5.4035 -9.2554,5.6062 -6.2769,3.3637 1.2513,-1.0661 1.4807,-2.4182 1.4981,-3.9694 -0.051,-1.5835 -0.024,-3.1768 -0.1912,-4.7533 -1.0659,-3.3079 -4.3955,-5.3425 -7.0371,-7.3188 -4.2842,-2.8615 -8.868,-5.186 -13.6144,-7.1667 -2.0219,-0.7206 -4.184,-1.583 -6.368,-1.3047 -3.2623,1.138 -8.7482,4.6031 6.7873,-4.0447 0.2225,-0.1239 -0.4316,0.2731 -0.6282,0.4351 -0.4151,0.3424 -0.6098,0.6302 -0.9417,1.046 -0.363,0.5517 -0.4119,0.368 0.3119,0.4773 0,0 -8.7128,5.5639 -8.7128,5.5639 l 0,0 c -1.5253,-1.3877 -1.4663,-0.6301 -1.202,-1.9371 0.6115,-0.7665 0.3136,-0.358 0.8866,-1.2306 2.8118,-3.5439 7.4518,-5.8613 11.916,-6.4612 2.2498,0.1384 4.3751,0.8941 6.413,1.8315 4.68,2.1961 9.2482,4.6138 13.5739,7.4558 2.9381,2.1415 6.5163,4.2318 7.8435,7.801 0.2423,1.6063 0.1376,3.2411 0.2647,4.8599 0.039,1.7581 -0.02,3.4573 -1.2407,4.8586 -6.5036,5.9094 -15.0444,8.4971 -23.2855,10.7246 -7.8082,1.9695 -15.7066,3.5206 -23.5625,5.2827 2.6928,-2.0664 5.3348,-4.2007 8.0783,-6.1993 0.1011,-0.074 0.2478,0.036 0.3726,0.043 0.3347,0.02 0.6701,0.027 1.0051,0.039 1.9665,0.073 3.9327,0.153 5.8957,0.2958 10.1134,0.7302 20.2058,1.8184 30.1847,3.6535 8.4926,1.9142 17.5161,3.9082 23.9531,10.2033 2.2407,2.8931 2.6741,3.9078 2.567,7.508 -0.012,3.2156 -0.084,6.4784 -1.1575,9.5483 -0.2788,0.6751 -0.5002,1.3769 -0.8363,2.0254 -2.9015,5.5983 -8.3427,7.5997 -13.8209,10.8752 -2.5596,1.5305 -4.2487,1.8986 -7.1238,2.8543 -1.6268,0.4052 -3.2411,0.8648 -4.8805,1.2156 -9.0278,1.9319 -18.2693,2.8985 -27.4627,3.5781 -2.2913,-0.019 -7.3969,0.2676 -9.2393,-1.4514 -0.1727,-0.1612 -0.2522,-0.3997 -0.3783,-0.5995 -0.602,-1.6053 -0.29,-3.3344 -0.439,-5.0171 -0.1164,-2.0571 -0.3304,-4.1035 -0.6131,-6.1445 -0.029,-2.2232 -0.05,-4.4473 -0.1955,-6.667 -0.2614,-3.9728 -0.6038,-7.9397 -0.6067,-11.9249 -0.2041,-5.8657 -0.5781,-11.7235 -0.649,-17.5936 -0.2291,-5.8664 -0.6008,-11.7245 -0.869,-17.5891 -0.3259,-4.4485 -0.7511,-8.9 -1.83,-13.2404 0,0 9.2501,-4.8589 9.2501,-4.8589 z"
       inkscape:connector-curvature="0" />
    <path
       style="color:#000000;clip-rule:nonzero;display:inline;overflow:visible;visibility:visible;opacity:1;isolation:auto;mix-blend-mode:normal;color-interpolation:sRGB;color-interpolation-filters:linearRGB;solid-color:#000000;solid-opacity:1;fill:#ff7f2a;fill-opacity:1;fill-rule:nonzero;stroke:#ffff00;stroke-width:1.30467534;stroke-linecap:butt;stroke-linejoin:miter;stroke-miterlimit:4;stroke-dasharray:none;stroke-dashoffset:0;stroke-opacity:1;color-rendering:auto;image-rendering:auto;shape-rendering:auto;text-rendering:auto;enable-background:accumulate;filter-blend-mode:normal;filter-gaussianBlur-deviation:0"
       id="path4403"
       d="m -1145.1089,1641.8971 c -0.1557,3.9212 -0.1435,7.8468 -0.1776,11.7704 -0.043,5.4503 -0.049,10.9012 -0.01,16.3515 0.037,4.695 -0.1262,9.3884 0.3014,14.0686 0.5113,4.6852 2.6089,8.8636 5.1218,12.7697 2.3935,3.6222 5.4742,6.6225 8.9443,9.1928 3.9723,2.6958 8.5979,3.7864 13.3178,4.1241 2.2953,-0.2194 2.9194,-0.096 5.1064,-1.0892 0.889,-0.4038 3.4148,-1.8877 2.5266,-1.4822 -2.0261,0.9251 -3.7612,2.6215 -5.9479,3.0444 -1.0944,0.2117 1.6484,-1.5085 2.3753,-2.3534 0.7657,-0.89 1.3926,-1.8905 2.0889,-2.8358 3.7502,-5.5551 5.8217,-11.9489 7.1942,-18.4514 1.0576,-4.7647 1.3833,-9.6356 1.5474,-14.4996 0.2109,-3.3782 -0.232,-6.6939 -0.9487,-9.9818 -0.4749,-1.9069 -1.2376,-3.7755 -2.5036,-5.296 -0.3412,-0.6908 -1.0564,-0.9297 -1.58,-1.4221 -0.4986,-0.5518 -0.2499,-0.3004 -0.7398,-0.7603 -0.3726,-0.3925 -0.6133,-0.874 -0.9258,-1.3114 0,0 9.0379,-5.3256 9.0379,-5.3256 l 0,0 c 0.2675,0.3864 0.4913,0.8033 0.8232,1.1396 0.7897,0.7816 1.7374,1.3928 2.3591,2.3314 1.2682,1.7213 2.0675,3.7234 2.5602,5.7979 0.7255,3.3854 1.2463,6.7994 0.9371,10.2774 -0.2231,4.9272 -0.5153,9.8845 -1.5859,14.7125 -1.4576,6.6085 -3.5699,13.1259 -7.1999,18.8896 -0.6632,0.9854 -1.2569,2.0213 -1.9898,2.956 -3.6572,4.6644 -7.1654,5.6795 -13.2285,9.3102 -2.5096,1.5028 -5.1611,2.2764 -8.093,2.1912 -4.8606,-0.4842 -9.5704,-1.7734 -13.6455,-4.5744 -3.5551,-2.6445 -6.733,-5.7533 -9.1305,-9.5092 -2.5645,-4.0535 -4.7319,-8.3602 -5.378,-13.1762 -0.4417,-4.719 -0.2581,-9.4545 -0.2705,-14.1889 0.043,-5.4482 0.037,-10.897 -0.01,-16.3452 -0.034,-3.8632 -0.02,-7.7286 -0.1776,-11.5894 0,0 9.2934,-4.7352 9.2934,-4.7352 z"
       inkscape:connector-curvature="0" />
    <path
       style="color:#000000;clip-rule:nonzero;display:inline;overflow:visible;visibility:visible;opacity:1;isolation:auto;mix-blend-mode:normal;color-interpolation:sRGB;color-interpolation-filters:linearRGB;solid-color:#000000;solid-opacity:1;fill:#ff7f2a;fill-opacity:1;fill-rule:nonzero;stroke:#ffff00;stroke-width:1.30467534;stroke-linecap:butt;stroke-linejoin:miter;stroke-miterlimit:4;stroke-dasharray:none;stroke-dashoffset:0;stroke-opacity:1;color-rendering:auto;image-rendering:auto;shape-rendering:auto;text-rendering:auto;enable-background:accumulate"
       id="path4405"
       d="m -1063.7654,1647.994 c -0.144,2.9348 0.07,5.88 0.3417,8.8018 0.4637,5.0717 1.8275,9.9991 3.5305,14.78 1.036,2.4578 2.1662,5.2694 4.8679,6.2105 0.3173,0.049 0.6315,0.1275 0.952,0.1457 1.9286,0.11 3.9588,-0.2359 5.8489,-0.5204 2.3318,-0.3509 4.6555,-0.7543 6.9847,-1.1227 8.6566,-1.8444 17.1903,-4.4553 25.2813,-8.0693 1.5246,-0.681 3.0037,-1.46 4.5055,-2.1899 -1.4186,0.7764 -2.6769,2.6791 -4.2558,2.3293 -1.3744,-0.3045 2.3026,-1.6247 3.3876,-2.5217 3.7599,-3.1084 6.7072,-6.8866 9.5064,-10.8405 2.1457,-2.9199 3.60534,-6.2137 5.00504,-9.5277 3.03084,-1.8326 5.85734,-4.0562 9.09251,-5.4977 0.4023,-0.1793 0.46776,0.7669 0.55674,1.1982 0.0679,0.3291 -0.0675,0.6687 -0.10269,1.0029 -0.0454,0.4303 -0.0969,0.86 -0.13915,1.2906 -0.16951,1.7263 -0.15379,1.7153 -0.27438,3.5237 -0.60636,5.875 -0.82423,11.7767 -0.97106,17.6778 -0.1197,5.7679 -0.0381,11.5334 -0.29726,17.2976 -0.43346,4.8918 -0.52247,9.8136 -1.42749,14.6479 -0.8453,3.4466 -2.11088,6.86 -4.75946,9.3462 -0.56058,0.5262 -1.20101,0.9603 -1.80152,1.4405 -3.70528,2.0197 -7.32608,4.2026 -11.11568,6.0591 -1.1099,0.5437 -4.8809,1.1753 -6.0028,1.3374 -3.7961,0.5484 -7.6042,0.6325 -11.4313,0.732 -9.5537,-0.084 -19.1052,-0.327 -28.6595,-0.3984 -3.911,0.098 -7.8036,-0.081 -11.6935,-0.4574 -0.9146,-0.2275 -1.8351,-0.4219 -2.6745,-0.8538 0,0 8.73,-5.7976 8.73,-5.7976 l 0,0 c 0.7794,0.2853 1.5815,0.5134 2.4013,0.6497 3.6981,0.4702 7.4061,0.7191 11.1367,0.7444 9.4928,0.3286 18.9921,0.6319 28.4916,0.449 4.9167,-0.2559 9.9201,-0.4197 14.7097,-1.6866 0.9509,-0.2515 3.5383,-1.565 2.8085,-0.9054 -1.7772,1.6063 -4.0452,2.5676 -6.0678,3.8513 0.6123,-0.4268 1.259,-0.8082 1.8371,-1.2805 2.7452,-2.243 4.0982,-5.4772 4.9915,-8.8173 1.02074,-4.7985 1.20274,-9.6905 1.61722,-14.5702 0.25229,-5.7732 0.31836,-11.5473 0.39405,-17.3256 0.15241,-5.8591 0.36578,-11.7172 0.69692,-17.5692 0.0587,-1.5799 0.12443,-3.1583 0.2043,-4.7372 0.014,-0.2766 -0.20944,-0.704 0.0372,-0.8299 0.22448,-0.1147 0.35234,0.3606 0.52851,0.5409 2.91162,-1.7795 5.82324,-3.559 8.73487,-5.3385 -0.65566,0.9615 -1.10184,2.0203 -1.60999,3.0661 -1.14706,2.3605 -2.37383,4.6799 -3.9149,6.8146 -2.84545,4.05 -5.8233,7.9579 -9.60238,11.2038 -4.9542,4.2552 -9.0401,5.9144 -15.4637,9.6459 -1.4824,0.6911 -2.9452,1.4257 -4.4471,2.0733 -8.2596,3.5618 -16.9167,6.1996 -25.6948,8.1232 -0.5458,0.096 -6.3672,1.1248 -7.2109,1.2604 -2.4485,0.3937 -5.0528,0.935 -7.48,0.1583 -2.7467,-1.4526 -3.9434,-4.3127 -4.9756,-7.1177 -1.6755,-4.8543 -3.088,-9.8211 -3.7734,-14.922 -0.3087,-2.9061 -0.5799,-5.8224 -0.6794,-8.743 0,0 9.3458,-4.7619 9.3458,-4.7619 z"
       inkscape:connector-curvature="0" />
  </g>
</svg>
